<svg xmlns="http://www.w3.org/2000/svg" width="1180" height="1170" viewBox="0 0 1180 1170">
<rect width="100%" height="100%" fill="#ffffff"/>
<text x="24" y="28" font-family="Arial" font-size="18" font-weight="700">Signed transfer errors: M3 baseline vs best diagnostic form</text>
<line x1="610" x2="610" y1="48" y2="1152" stroke="#333" stroke-width="1"/>
<text x="620" y="48" font-family="Arial" font-size="11" fill="#555">hot / positive</text>
<text x="500" y="48" font-family="Arial" font-size="11" fill="#555">cold / negative</text>
<text x="24" y="71" font-family="Arial" font-size="10">salt_3 TP1 D4_M3_segment_offsets_min2_train</text>
<rect x="598.83" y="60" width="11.17" height="12" fill="#2f6f73"/>
<text x="552.83" y="70" font-family="Arial" font-size="10">-3.7 K</text>
<text x="24" y="89" font-family="Arial" font-size="10">salt_3 TP1 M3_as_is</text>
<rect x="548.46" y="78" width="61.54" height="12" fill="#a6423a"/>
<text x="502.46" y="88" font-family="Arial" font-size="10">-20.5 K</text>
<text x="24" y="107" font-family="Arial" font-size="10">salt_3 TP3 D4_M3_segment_offsets_min2_train</text>
<rect x="610.00" y="96" width="12.25" height="12" fill="#2f6f73"/>
<text x="627.25" y="106" font-family="Arial" font-size="10">+4.1 K</text>
<text x="24" y="125" font-family="Arial" font-size="10">salt_3 TP3 M3_as_is</text>
<rect x="584.07" y="114" width="25.93" height="12" fill="#a6423a"/>
<text x="538.07" y="124" font-family="Arial" font-size="10">-8.6 K</text>
<text x="24" y="143" font-family="Arial" font-size="10">salt_3 TP4 D4_M3_segment_offsets_min2_train</text>
<rect x="610.00" y="132" width="4.42" height="12" fill="#2f6f73"/>
<text x="619.42" y="142" font-family="Arial" font-size="10">+1.5 K</text>
<text x="24" y="161" font-family="Arial" font-size="10">salt_3 TP4 M3_as_is</text>
<rect x="576.24" y="150" width="33.76" height="12" fill="#a6423a"/>
<text x="530.24" y="160" font-family="Arial" font-size="10">-11.3 K</text>
<text x="24" y="179" font-family="Arial" font-size="10">salt_3 TP5 D4_M3_segment_offsets_min2_train</text>
<rect x="610.00" y="168" width="12.32" height="12" fill="#2f6f73"/>
<text x="627.32" y="178" font-family="Arial" font-size="10">+4.1 K</text>
<text x="24" y="197" font-family="Arial" font-size="10">salt_3 TP5 M3_as_is</text>
<rect x="571.94" y="186" width="38.06" height="12" fill="#a6423a"/>
<text x="525.94" y="196" font-family="Arial" font-size="10">-12.7 K</text>
<text x="24" y="215" font-family="Arial" font-size="10">salt_3 TP6 D4_M3_segment_offsets_min2_train</text>
<rect x="610.00" y="204" width="5.54" height="12" fill="#2f6f73"/>
<text x="620.54" y="214" font-family="Arial" font-size="10">+1.8 K</text>
<text x="24" y="233" font-family="Arial" font-size="10">salt_3 TP6 M3_as_is</text>
<rect x="567.02" y="222" width="42.98" height="12" fill="#a6423a"/>
<text x="521.02" y="232" font-family="Arial" font-size="10">-14.3 K</text>
<text x="24" y="251" font-family="Arial" font-size="10">salt_3 TW1 D4_M3_segment_offsets_min2_train</text>
<rect x="584.05" y="240" width="25.95" height="12" fill="#2f6f73"/>
<text x="538.05" y="250" font-family="Arial" font-size="10">-8.7 K</text>
<text x="24" y="269" font-family="Arial" font-size="10">salt_3 TW1 M3_as_is</text>
<rect x="492.25" y="258" width="117.75" height="12" fill="#a6423a"/>
<text x="446.25" y="268" font-family="Arial" font-size="10">-39.3 K</text>
<text x="24" y="287" font-family="Arial" font-size="10">salt_3 TW2 D4_M3_segment_offsets_min2_train</text>
<rect x="596.82" y="276" width="13.18" height="12" fill="#2f6f73"/>
<text x="550.82" y="286" font-family="Arial" font-size="10">-4.4 K</text>
<text x="24" y="305" font-family="Arial" font-size="10">salt_3 TW2 M3_as_is</text>
<rect x="505.02" y="294" width="104.98" height="12" fill="#a6423a"/>
<text x="459.02" y="304" font-family="Arial" font-size="10">-35.0 K</text>
<text x="24" y="323" font-family="Arial" font-size="10">salt_3 TW3 D4_M3_segment_offsets_min2_train</text>
<rect x="610.00" y="312" width="55.24" height="12" fill="#2f6f73"/>
<text x="670.24" y="322" font-family="Arial" font-size="10">+18.4 K</text>
<text x="24" y="341" font-family="Arial" font-size="10">salt_3 TW3 M3_as_is</text>
<rect x="573.44" y="330" width="36.56" height="12" fill="#a6423a"/>
<text x="527.44" y="340" font-family="Arial" font-size="10">-12.2 K</text>
<text x="24" y="359" font-family="Arial" font-size="10">salt_3 TW4 D4_M3_segment_offsets_min2_train</text>
<rect x="610.00" y="348" width="2.72" height="12" fill="#2f6f73"/>
<text x="617.72" y="358" font-family="Arial" font-size="10">+0.9 K</text>
<text x="24" y="377" font-family="Arial" font-size="10">salt_3 TW4 M3_as_is</text>
<rect x="578.95" y="366" width="31.05" height="12" fill="#a6423a"/>
<text x="532.95" y="376" font-family="Arial" font-size="10">-10.4 K</text>
<text x="24" y="395" font-family="Arial" font-size="10">salt_3 TW5 D4_M3_segment_offsets_min2_train</text>
<rect x="610.00" y="384" width="8.66" height="12" fill="#2f6f73"/>
<text x="623.66" y="394" font-family="Arial" font-size="10">+2.9 K</text>
<text x="24" y="413" font-family="Arial" font-size="10">salt_3 TW5 M3_as_is</text>
<rect x="584.88" y="402" width="25.12" height="12" fill="#a6423a"/>
<text x="538.88" y="412" font-family="Arial" font-size="10">-8.4 K</text>
<text x="24" y="431" font-family="Arial" font-size="10">salt_3 TW6 D4_M3_segment_offsets_min2_train</text>
<rect x="610.00" y="420" width="14.55" height="12" fill="#2f6f73"/>
<text x="629.55" y="430" font-family="Arial" font-size="10">+4.9 K</text>
<text x="24" y="449" font-family="Arial" font-size="10">salt_3 TW6 M3_as_is</text>
<rect x="590.78" y="438" width="19.22" height="12" fill="#a6423a"/>
<text x="544.78" y="448" font-family="Arial" font-size="10">-6.4 K</text>
<text x="24" y="467" font-family="Arial" font-size="10">salt_3 TW7 D4_M3_segment_offsets_min2_train</text>
<rect x="605.62" y="456" width="4.38" height="12" fill="#2f6f73"/>
<text x="559.62" y="466" font-family="Arial" font-size="10">-1.5 K</text>
<text x="24" y="485" font-family="Arial" font-size="10">salt_3 TW7 M3_as_is</text>
<rect x="567.43" y="474" width="42.57" height="12" fill="#a6423a"/>
<text x="521.43" y="484" font-family="Arial" font-size="10">-14.2 K</text>
<text x="24" y="503" font-family="Arial" font-size="10">salt_3 TW8 D4_M3_segment_offsets_min2_train</text>
<rect x="610.00" y="492" width="5.69" height="12" fill="#2f6f73"/>
<text x="620.69" y="502" font-family="Arial" font-size="10">+1.9 K</text>
<text x="24" y="521" font-family="Arial" font-size="10">salt_3 TW8 M3_as_is</text>
<rect x="567.17" y="510" width="42.83" height="12" fill="#a6423a"/>
<text x="521.17" y="520" font-family="Arial" font-size="10">-14.3 K</text>
<text x="24" y="539" font-family="Arial" font-size="10">salt_3 TW9 D4_M3_segment_offsets_min2_train</text>
<rect x="610.00" y="528" width="53.19" height="12" fill="#2f6f73"/>
<text x="668.19" y="538" font-family="Arial" font-size="10">+17.7 K</text>
<text x="24" y="557" font-family="Arial" font-size="10">salt_3 TW9 M3_as_is</text>
<rect x="610.00" y="546" width="2.82" height="12" fill="#a6423a"/>
<text x="617.82" y="556" font-family="Arial" font-size="10">+0.9 K</text>
<text x="24" y="575" font-family="Arial" font-size="10">salt_3 TW11 D4_M3_segment_offsets_min2_train</text>
<rect x="610.00" y="564" width="8.04" height="12" fill="#2f6f73"/>
<text x="623.04" y="574" font-family="Arial" font-size="10">+2.7 K</text>
<text x="24" y="593" font-family="Arial" font-size="10">salt_3 TW11 M3_as_is</text>
<rect x="567.67" y="582" width="42.33" height="12" fill="#a6423a"/>
<text x="521.67" y="592" font-family="Arial" font-size="10">-14.1 K</text>
<text x="24" y="611" font-family="Arial" font-size="10">salt_4 TP1 D4_M3_segment_offsets_min2_train</text>
<rect x="602.84" y="600" width="7.16" height="12" fill="#2f6f73"/>
<text x="556.84" y="610" font-family="Arial" font-size="10">-2.4 K</text>
<text x="24" y="629" font-family="Arial" font-size="10">salt_4 TP1 M3_as_is</text>
<rect x="552.46" y="618" width="57.54" height="12" fill="#a6423a"/>
<text x="506.46" y="628" font-family="Arial" font-size="10">-19.2 K</text>
<text x="24" y="647" font-family="Arial" font-size="10">salt_4 TP3 D4_M3_segment_offsets_min2_train</text>
<rect x="610.00" y="636" width="12.98" height="12" fill="#2f6f73"/>
<text x="627.98" y="646" font-family="Arial" font-size="10">+4.3 K</text>
<text x="24" y="665" font-family="Arial" font-size="10">salt_4 TP3 M3_as_is</text>
<rect x="584.80" y="654" width="25.20" height="12" fill="#a6423a"/>
<text x="538.80" y="664" font-family="Arial" font-size="10">-8.4 K</text>
<text x="24" y="683" font-family="Arial" font-size="10">salt_4 TP4 D4_M3_segment_offsets_min2_train</text>
<rect x="610.00" y="672" width="6.96" height="12" fill="#2f6f73"/>
<text x="621.96" y="682" font-family="Arial" font-size="10">+2.3 K</text>
<text x="24" y="701" font-family="Arial" font-size="10">salt_4 TP4 M3_as_is</text>
<rect x="578.78" y="690" width="31.22" height="12" fill="#a6423a"/>
<text x="532.78" y="700" font-family="Arial" font-size="10">-10.4 K</text>
<text x="24" y="719" font-family="Arial" font-size="10">salt_4 TP5 D4_M3_segment_offsets_min2_train</text>
<rect x="610.00" y="708" width="15.75" height="12" fill="#2f6f73"/>
<text x="630.75" y="718" font-family="Arial" font-size="10">+5.3 K</text>
<text x="24" y="737" font-family="Arial" font-size="10">salt_4 TP5 M3_as_is</text>
<rect x="575.37" y="726" width="34.63" height="12" fill="#a6423a"/>
<text x="529.37" y="736" font-family="Arial" font-size="10">-11.5 K</text>
<text x="24" y="755" font-family="Arial" font-size="10">salt_4 TP6 D4_M3_segment_offsets_min2_train</text>
<rect x="610.00" y="744" width="9.13" height="12" fill="#2f6f73"/>
<text x="624.13" y="754" font-family="Arial" font-size="10">+3.0 K</text>
<text x="24" y="773" font-family="Arial" font-size="10">salt_4 TP6 M3_as_is</text>
<rect x="570.61" y="762" width="39.39" height="12" fill="#a6423a"/>
<text x="524.61" y="772" font-family="Arial" font-size="10">-13.1 K</text>
<text x="24" y="791" font-family="Arial" font-size="10">salt_4 TW1 D4_M3_segment_offsets_min2_train</text>
<rect x="585.06" y="780" width="24.94" height="12" fill="#2f6f73"/>
<text x="539.06" y="790" font-family="Arial" font-size="10">-8.3 K</text>
<text x="24" y="809" font-family="Arial" font-size="10">salt_4 TW1 M3_as_is</text>
<rect x="493.26" y="798" width="116.74" height="12" fill="#a6423a"/>
<text x="447.26" y="808" font-family="Arial" font-size="10">-38.9 K</text>
<text x="24" y="827" font-family="Arial" font-size="10">salt_4 TW2 D4_M3_segment_offsets_min2_train</text>
<rect x="597.68" y="816" width="12.32" height="12" fill="#2f6f73"/>
<text x="551.68" y="826" font-family="Arial" font-size="10">-4.1 K</text>
<text x="24" y="845" font-family="Arial" font-size="10">salt_4 TW2 M3_as_is</text>
<rect x="505.88" y="834" width="104.12" height="12" fill="#a6423a"/>
<text x="459.88" y="844" font-family="Arial" font-size="10">-34.7 K</text>
<text x="24" y="863" font-family="Arial" font-size="10">salt_4 TW3 D4_M3_segment_offsets_min2_train</text>
<rect x="610.00" y="852" width="58.47" height="12" fill="#2f6f73"/>
<text x="673.47" y="862" font-family="Arial" font-size="10">+19.5 K</text>
<text x="24" y="881" font-family="Arial" font-size="10">salt_4 TW3 M3_as_is</text>
<rect x="576.67" y="870" width="33.33" height="12" fill="#a6423a"/>
<text x="530.67" y="880" font-family="Arial" font-size="10">-11.1 K</text>
<text x="24" y="899" font-family="Arial" font-size="10">salt_4 TW4 D4_M3_segment_offsets_min2_train</text>
<rect x="610.00" y="888" width="8.78" height="12" fill="#2f6f73"/>
<text x="623.78" y="898" font-family="Arial" font-size="10">+2.9 K</text>
<text x="24" y="917" font-family="Arial" font-size="10">salt_4 TW4 M3_as_is</text>
<rect x="585.01" y="906" width="24.99" height="12" fill="#a6423a"/>
<text x="539.01" y="916" font-family="Arial" font-size="10">-8.3 K</text>
<text x="24" y="935" font-family="Arial" font-size="10">salt_4 TW5 D4_M3_segment_offsets_min2_train</text>
<rect x="610.00" y="924" width="15.28" height="12" fill="#2f6f73"/>
<text x="630.28" y="934" font-family="Arial" font-size="10">+5.1 K</text>
<text x="24" y="953" font-family="Arial" font-size="10">salt_4 TW5 M3_as_is</text>
<rect x="591.51" y="942" width="18.49" height="12" fill="#a6423a"/>
<text x="545.51" y="952" font-family="Arial" font-size="10">-6.2 K</text>
<text x="24" y="971" font-family="Arial" font-size="10">salt_4 TW6 D4_M3_segment_offsets_min2_train</text>
<rect x="610.00" y="960" width="22.16" height="12" fill="#2f6f73"/>
<text x="637.16" y="970" font-family="Arial" font-size="10">+7.4 K</text>
<text x="24" y="989" font-family="Arial" font-size="10">salt_4 TW6 M3_as_is</text>
<rect x="598.39" y="978" width="11.61" height="12" fill="#a6423a"/>
<text x="552.39" y="988" font-family="Arial" font-size="10">-3.9 K</text>
<text x="24" y="1007" font-family="Arial" font-size="10">salt_4 TW7 D4_M3_segment_offsets_min2_train</text>
<rect x="606.94" y="996" width="3.06" height="12" fill="#2f6f73"/>
<text x="560.94" y="1006" font-family="Arial" font-size="10">-1.0 K</text>
<text x="24" y="1025" font-family="Arial" font-size="10">salt_4 TW7 M3_as_is</text>
<rect x="568.76" y="1014" width="41.24" height="12" fill="#a6423a"/>
<text x="522.76" y="1024" font-family="Arial" font-size="10">-13.7 K</text>
<text x="24" y="1043" font-family="Arial" font-size="10">salt_4 TW8 D4_M3_segment_offsets_min2_train</text>
<rect x="610.00" y="1032" width="9.47" height="12" fill="#2f6f73"/>
<text x="624.47" y="1042" font-family="Arial" font-size="10">+3.2 K</text>
<text x="24" y="1061" font-family="Arial" font-size="10">salt_4 TW8 M3_as_is</text>
<rect x="570.94" y="1050" width="39.06" height="12" fill="#a6423a"/>
<text x="524.94" y="1060" font-family="Arial" font-size="10">-13.0 K</text>
<text x="24" y="1079" font-family="Arial" font-size="10">salt_4 TW9 D4_M3_segment_offsets_min2_train</text>
<rect x="610.00" y="1068" width="59.00" height="12" fill="#2f6f73"/>
<text x="674.00" y="1078" font-family="Arial" font-size="10">+19.7 K</text>
<text x="24" y="1097" font-family="Arial" font-size="10">salt_4 TW9 M3_as_is</text>
<rect x="610.00" y="1086" width="8.62" height="12" fill="#a6423a"/>
<text x="623.62" y="1096" font-family="Arial" font-size="10">+2.9 K</text>
<text x="24" y="1115" font-family="Arial" font-size="10">salt_4 TW11 D4_M3_segment_offsets_min2_train</text>
<rect x="610.00" y="1104" width="15.32" height="12" fill="#2f6f73"/>
<text x="630.32" y="1114" font-family="Arial" font-size="10">+5.1 K</text>
<text x="24" y="1133" font-family="Arial" font-size="10">salt_4 TW11 M3_as_is</text>
<rect x="574.95" y="1122" width="35.05" height="12" fill="#a6423a"/>
<text x="528.95" y="1132" font-family="Arial" font-size="10">-11.7 K</text>
</svg>
