<svg xmlns="http://www.w3.org/2000/svg" width="760" height="440" viewBox="0 0 760 440">
<rect width="100%" height="100%" fill="#fcfcfb"/>
<style>text{font-family:system-ui,-apple-system,"Segoe UI",Helvetica,Arial,sans-serif;fill:#111}.title{font-size:18px;font-weight:700}.axis{font-size:12px}.tick{font-size:10px;fill:#666}</style>
<text x="82" y="28" class="title">mdot error vs TP/TW all-probe RMSE</text>
<rect x="82" y="48" width="628" height="332" fill="none" stroke="#bbb"/>
<text x="396.0" y="424" text-anchor="middle" class="axis">mdot error vs CFD [kg/s]</text>
<text x="18" y="220" transform="rotate(-90 18 220)" text-anchor="middle" class="axis">TP/TW RMSE [K]</text>
<line x1="82.0" x2="82.0" y1="48" y2="380" stroke="#e6e1d8"/>
<line x1="82" x2="710" y1="48.0" y2="48.0" stroke="#e6e1d8"/>
<line x1="239.0" x2="239.0" y1="48" y2="380" stroke="#e6e1d8"/>
<line x1="82" x2="710" y1="131.0" y2="131.0" stroke="#e6e1d8"/>
<line x1="396.0" x2="396.0" y1="48" y2="380" stroke="#e6e1d8"/>
<line x1="82" x2="710" y1="214.0" y2="214.0" stroke="#e6e1d8"/>
<line x1="553.0" x2="553.0" y1="48" y2="380" stroke="#e6e1d8"/>
<line x1="82" x2="710" y1="297.0" y2="297.0" stroke="#e6e1d8"/>
<line x1="710.0" x2="710.0" y1="48" y2="380" stroke="#e6e1d8"/>
<line x1="82" x2="710" y1="380.0" y2="380.0" stroke="#e6e1d8"/>
<circle cx="710.0" cy="278.4" r="5" fill="#12664f"><title>salt_2 M1_full_cfd_segment_heat_flux_pressure_root mdot=0.00635125 rmse=75.85</title></circle>
<circle cx="465.3" cy="98.6" r="5" fill="#12664f"><title>salt_2 M1b_full_cfd_segment_heat_flux_fixed_mdot mdot=0 rmse=180.1</title></circle>
<circle cx="517.4" cy="367.3" r="5" fill="#b26a00"><title>salt_2 M2_cfd_heater_test_section_cooler_pressure_root mdot=0.00135125 rmse=24.33</title></circle>
<circle cx="541.4" cy="375.9" r="5" fill="#3267a8"><title>salt_2 M3_cfd_heater_cooler_pressure_root mdot=0.00197625 rmse=19.35</title></circle>
<circle cx="460.4" cy="77.8" r="5" fill="#12664f"><title>salt_3 M1_full_cfd_segment_heat_flux_pressure_root mdot=-0.00012625 rmse=192.2</title></circle>
<circle cx="465.3" cy="290.4" r="5" fill="#12664f"><title>salt_3 M1b_full_cfd_segment_heat_flux_fixed_mdot mdot=0 rmse=68.94</title></circle>
<circle cx="520.6" cy="363.6" r="5" fill="#b26a00"><title>salt_3 M2_cfd_heater_test_section_cooler_pressure_root mdot=0.00143625 rmse=26.48</title></circle>
<circle cx="556.8" cy="378.7" r="5" fill="#3267a8"><title>salt_3 M3_cfd_heater_cooler_pressure_root mdot=0.00237375 rmse=17.75</title></circle>
<circle cx="82.0" cy="48.0" r="5" fill="#12664f"><title>salt_4 M1_full_cfd_segment_heat_flux_pressure_root mdot=-0.00994875 rmse=209.4</title></circle>
<circle cx="465.3" cy="51.2" r="5" fill="#12664f"><title>salt_4 M1b_full_cfd_segment_heat_flux_fixed_mdot mdot=0 rmse=207.6</title></circle>
<circle cx="539.5" cy="357.4" r="5" fill="#b26a00"><title>salt_4 M2_cfd_heater_test_section_cooler_pressure_root mdot=0.00192625 rmse=30.1</title></circle>
<circle cx="593.7" cy="380.0" r="5" fill="#3267a8"><title>salt_4 M3_cfd_heater_cooler_pressure_root mdot=0.0033325 rmse=16.97</title></circle>
</svg>