<svg xmlns="http://www.w3.org/2000/svg" width="980" height="620" viewBox="0 0 980 620">
<rect x="0" y="0" width="980" height="620" fill="#FFFFFF"/>
<style>
text{font-family:Arial,Helvetica,sans-serif;fill:#111827}
.title{font-size:22px;font-weight:700}
.subtitle{font-size:12px;fill:#4B5563}
.axis{stroke:#374151;stroke-width:1}
.grid{stroke:#E5E7EB;stroke-width:1}
.tick{font-size:11px;fill:#4B5563}
.label{font-size:12px;fill:#111827}
.small{font-size:10px;fill:#4B5563}
.legend{font-size:11px;fill:#111827}
</style>
<text x="230" y="34" class="title">Patchwise Heat Source/Sink Accounting</text>
<text x="230" y="56" class="subtitle">Positive heat_to_fluid_W is heat into fluid; negative is heat removed</text>
<text x="577.0" y="598" text-anchor="middle" class="label">W</text>
<line x1="230.00" y1="86" x2="230.00" y2="520" class="grid"/>
<text x="230.00" y="542" text-anchor="middle" class="tick">-400</text>
<line x1="403.50" y1="86" x2="403.50" y2="520" class="grid"/>
<text x="403.50" y="542" text-anchor="middle" class="tick">-200</text>
<line x1="577.00" y1="86" x2="577.00" y2="520" class="grid"/>
<text x="577.00" y="542" text-anchor="middle" class="tick">0</text>
<line x1="750.50" y1="86" x2="750.50" y2="520" class="grid"/>
<text x="750.50" y="542" text-anchor="middle" class="tick">200</text>
<line x1="924.00" y1="86" x2="924.00" y2="520" class="grid"/>
<text x="924.00" y="542" text-anchor="middle" class="tick">400</text>
<line x1="577.00" y1="86" x2="577.00" y2="520" class="axis"/>
<line x1="230" y1="520" x2="924" y2="520" class="axis"/>
<text x="220" y="165.23" text-anchor="end" class="tick">Salt 2</text>
<rect x="577.00" y="148.23" width="211.25" height="26.00" fill="#C53030"/>
<rect x="458.72" y="148.23" width="118.28" height="26.00" fill="#2878B5"/>
<rect x="404.73" y="148.23" width="53.99" height="26.00" fill="#0F766E"/>
<rect x="399.80" y="148.23" width="4.93" height="26.00" fill="#D97706"/>
<rect x="365.86" y="148.23" width="33.94" height="26.00" fill="#6B7280"/>
<text x="220" y="309.89" text-anchor="end" class="tick">Salt 3</text>
<rect x="577.00" y="292.89" width="236.96" height="26.00" fill="#C53030"/>
<rect x="446.21" y="292.89" width="130.79" height="26.00" fill="#2878B5"/>
<rect x="386.94" y="292.89" width="59.27" height="26.00" fill="#0F766E"/>
<rect x="377.79" y="292.89" width="9.15" height="26.00" fill="#D97706"/>
<rect x="340.29" y="292.89" width="37.51" height="26.00" fill="#6B7280"/>
<text x="220" y="454.56" text-anchor="end" class="tick">Salt 4</text>
<rect x="577.00" y="437.56" width="269.35" height="26.00" fill="#C53030"/>
<rect x="430.20" y="437.56" width="146.80" height="26.00" fill="#2878B5"/>
<rect x="364.33" y="437.56" width="65.87" height="26.00" fill="#0F766E"/>
<rect x="349.78" y="437.56" width="14.55" height="26.00" fill="#D97706"/>
<rect x="307.72" y="437.56" width="42.06" height="26.00" fill="#6B7280"/>
<rect x="230" y="548" width="14" height="14" fill="#C53030"/>
<text x="250" y="560" class="legend">heater</text>
<rect x="368" y="548" width="14" height="14" fill="#2878B5"/>
<text x="388" y="560" class="legend">cooler</text>
<rect x="506" y="548" width="14" height="14" fill="#0F766E"/>
<text x="526" y="560" class="legend">ambient_wall</text>
<rect x="644" y="548" width="14" height="14" fill="#D97706"/>
<text x="664" y="560" class="legend">test_section</text>
<rect x="782" y="548" width="14" height="14" fill="#6B7280"/>
<text x="802" y="560" class="legend">junction_other</text>
<text x="230" y="578" class="small">Source: July 8 patchwise heat ledger. Wall-flux accounting is paired with separate enthalpy-residual diagnostics.</text>
</svg>
