<svg xmlns="http://www.w3.org/2000/svg" width="1120" height="620" viewBox="0 0 1120 620">
<style>text{font-family:Arial,Helvetica,sans-serif;fill:#222}.title{font-size:22px;font-weight:700}.label{font-size:13px}.small{font-size:11px}.grid{stroke:#ddd}.axis{stroke:#333;stroke-width:1.2}</style>
<rect width="100%" height="100%" fill="white"/>
<text x="90" y="32" class="title">CFD Heat Audit by Run</text>
<line x1="90" x2="1080" y1="531.6" y2="531.6" class="grid"/>
<text x="82" y="535.6" text-anchor="end" class="small">-400</text>
<line x1="90" x2="1080" y1="405.3" y2="405.3" class="grid"/>
<text x="82" y="409.3" text-anchor="end" class="small">-200</text>
<line x1="90" x2="1080" y1="279.0" y2="279.0" class="grid"/>
<text x="82" y="283.0" text-anchor="end" class="small">0</text>
<line x1="90" x2="1080" y1="152.7" y2="152.7" class="grid"/>
<text x="82" y="156.7" text-anchor="end" class="small">200</text>
<line x1="90" x2="1080" y1="26.4" y2="26.4" class="grid"/>
<text x="82" y="30.4" text-anchor="end" class="small">400</text>
<line x1="90" x2="1080" y1="279.0" y2="279.0" class="axis"/>
<rect x="141.8" y="125.2" width="16.0" height="153.8" fill="#e41a1c" opacity="0.88"/>
<rect x="159.8" y="279.0" width="16.0" height="86.1" fill="#377eb8" opacity="0.88"/>
<rect x="177.8" y="279.0" width="16.0" height="3.6" fill="#984ea3" opacity="0.88"/>
<rect x="195.8" y="279.0" width="16.0" height="39.3" fill="#4daf4a" opacity="0.88"/>
<rect x="213.8" y="279.0" width="16.0" height="24.7" fill="#ff7f00" opacity="0.88"/>
<text x="213.8" y="548" text-anchor="middle" transform="rotate(-35 213.8,548)" class="small">salt2_mainline</text>
<rect x="389.2" y="106.5" width="16.0" height="172.5" fill="#e41a1c" opacity="0.88"/>
<rect x="407.2" y="279.0" width="16.0" height="95.2" fill="#377eb8" opacity="0.88"/>
<rect x="425.2" y="279.0" width="16.0" height="6.7" fill="#984ea3" opacity="0.88"/>
<rect x="443.2" y="279.0" width="16.0" height="43.1" fill="#4daf4a" opacity="0.88"/>
<rect x="461.2" y="279.0" width="16.0" height="27.3" fill="#ff7f00" opacity="0.88"/>
<text x="461.2" y="548" text-anchor="middle" transform="rotate(-35 461.2,548)" class="small">salt3_mainline</text>
<rect x="636.8" y="82.9" width="16.0" height="196.1" fill="#e41a1c" opacity="0.88"/>
<rect x="654.8" y="279.0" width="16.0" height="106.9" fill="#377eb8" opacity="0.88"/>
<rect x="672.8" y="279.0" width="16.0" height="10.6" fill="#984ea3" opacity="0.88"/>
<rect x="690.8" y="279.0" width="16.0" height="47.9" fill="#4daf4a" opacity="0.88"/>
<rect x="708.8" y="279.0" width="16.0" height="30.6" fill="#ff7f00" opacity="0.88"/>
<text x="708.8" y="548" text-anchor="middle" transform="rotate(-35 708.8,548)" class="small">salt4_mainline</text>
<rect x="884.2" y="124.5" width="16.0" height="154.5" fill="#e41a1c" opacity="0.88"/>
<rect x="902.2" y="279.0" width="16.0" height="86.1" fill="#377eb8" opacity="0.88"/>
<rect x="920.2" y="279.0" width="16.0" height="4.7" fill="#984ea3" opacity="0.88"/>
<rect x="956.2" y="279.0" width="16.0" height="25.8" fill="#ff7f00" opacity="0.88"/>
<rect x="974.2" y="279.0" width="16.0" height="14.0" fill="#a65628" opacity="0.88"/>
<rect x="992.2" y="279.0" width="16.0" height="12.2" fill="#f781bf" opacity="0.88"/>
<rect x="1010.2" y="279.0" width="16.0" height="11.5" fill="#999999" opacity="0.88"/>
<text x="956.2" y="548" text-anchor="middle" transform="rotate(-35 956.2,548)" class="small">val_salt2</text>
<rect x="90" y="586" width="14" height="10" fill="#e41a1c"/>
<text x="108" y="596" class="small">heater</text>
<rect x="215" y="586" width="14" height="10" fill="#377eb8"/>
<text x="233" y="596" class="small">cooler</text>
<rect x="340" y="586" width="14" height="10" fill="#984ea3"/>
<text x="358" y="596" class="small">test section</text>
<rect x="465" y="586" width="14" height="10" fill="#4daf4a"/>
<text x="483" y="596" class="small">ambient wall</text>
<rect x="590" y="586" width="14" height="10" fill="#ff7f00"/>
<text x="608" y="596" class="small">junction/stub</text>
<rect x="715" y="586" width="14" height="10" fill="#a65628"/>
<text x="733" y="596" class="small">downcomer</text>
<rect x="840" y="586" width="14" height="10" fill="#f781bf"/>
<text x="858" y="596" class="small">upcomer</text>
<rect x="965" y="586" width="14" height="10" fill="#999999"/>
<text x="983" y="596" class="small">transport/stub</text>
<text x="22" y="279.0" transform="rotate(-90 22,279.0)" text-anchor="middle" class="label">realized heat to fluid [W]; negative removes heat</text>
</svg>
