<svg xmlns="http://www.w3.org/2000/svg" width="1280" height="720" viewBox="0 0 1280 720">
<style>text{font-family:Arial,Helvetica,sans-serif;fill:#222}.axis{stroke:#333;stroke-width:1.2}.grid{stroke:#ddd;stroke-width:1}.line{fill:none;stroke-width:2.4}.thin{stroke-width:1.6}.label{font-size:13px}.small{font-size:11px}.title{font-size:22px;font-weight:700}.legend{font-size:12px}</style>
<rect x="0" y="0" width="1280" height="720" fill="white"/>
<text x="92" y="32" class="title">Pressure Map Through Loop: p_rgh</text>
<rect x="77.6" y="55" width="156.8" height="547" fill="#fff7bc" opacity="0.45"/>
<text x="156.0" y="672" text-anchor="middle" class="small">lower_leg heater</text>
<rect x="237.6" y="55" width="156.8" height="547" fill="#d9f0d3" opacity="0.45"/>
<text x="316.0" y="672" text-anchor="middle" class="small">left lower upcomer</text>
<rect x="397.6" y="55" width="156.8" height="547" fill="#fee0d2" opacity="0.45"/>
<text x="476.0" y="672" text-anchor="middle" class="small">test section</text>
<rect x="557.6" y="55" width="156.8" height="547" fill="#c7e9c0" opacity="0.45"/>
<text x="636.0" y="672" text-anchor="middle" class="small">left upper upcomer</text>
<rect x="717.6" y="55" width="156.8" height="547" fill="#deebf7" opacity="0.45"/>
<text x="796.0" y="672" text-anchor="middle" class="small">upper cooled leg</text>
<rect x="877.6" y="55" width="156.8" height="547" fill="#e5e5e5" opacity="0.45"/>
<text x="956.0" y="672" text-anchor="middle" class="small">right downcomer</text>
<line x1="92" y1="602.0" x2="1020" y2="602.0" class="grid"/>
<text x="82" y="606.0" text-anchor="end" class="label">-20</text>
<line x1="92" y1="465.2" x2="1020" y2="465.2" class="grid"/>
<text x="82" y="469.2" text-anchor="end" class="label">-10</text>
<line x1="92" y1="328.5" x2="1020" y2="328.5" class="grid"/>
<text x="82" y="332.5" text-anchor="end" class="label">0</text>
<line x1="92" y1="191.8" x2="1020" y2="191.8" class="grid"/>
<text x="82" y="195.8" text-anchor="end" class="label">10</text>
<line x1="92" y1="55.0" x2="1020" y2="55.0" class="grid"/>
<text x="82" y="59.0" text-anchor="end" class="label">20</text>
<line x1="92.0" y1="55" x2="92.0" y2="602" class="grid"/>
<text x="92.0" y="636" text-anchor="middle" class="small">0</text>
<line x1="252.0" y1="55" x2="252.0" y2="602" class="grid"/>
<text x="252.0" y="636" text-anchor="middle" class="small">5</text>
<line x1="412.0" y1="55" x2="412.0" y2="602" class="grid"/>
<text x="412.0" y="636" text-anchor="middle" class="small">10</text>
<line x1="572.0" y1="55" x2="572.0" y2="602" class="grid"/>
<text x="572.0" y="636" text-anchor="middle" class="small">15</text>
<line x1="732.0" y1="55" x2="732.0" y2="602" class="grid"/>
<text x="732.0" y="636" text-anchor="middle" class="small">20</text>
<line x1="892.0" y1="55" x2="892.0" y2="602" class="grid"/>
<text x="892.0" y="636" text-anchor="middle" class="small">25</text>
<line x1="1020.0" y1="55" x2="1020.0" y2="602" class="grid"/>
<text x="1020.0" y="636" text-anchor="middle" class="small">29</text>
<line x1="92" y1="602" x2="1020" y2="602" class="axis"/>
<line x1="92" y1="55" x2="92" y2="602" class="axis"/>
<text x="556.0" y="702" text-anchor="middle" class="label">loop-order station index, physical flow order</text>
<text x="22" y="328.5" transform="rotate(-90 22,328.5)" text-anchor="middle" class="label">mean p_rgh [Pa]</text>
<polyline points="92.0,337.8 124.0,242.8 156.0,213.0 188.0,209.5 220.0,323.4 252.0,375.6 284.0,378.9 316.0,379.0 348.0,378.6 380.0,379.1 412.0,359.4 444.0,359.9 476.0,360.3 508.0,361.3 540.0,363.7 572.0,374.8 604.0,406.2 636.0,249.6 668.0,268.6 700.0,598.6 732.0,532.0 764.0,452.8 796.0,286.6 828.0,223.1 860.0,214.9 892.0,339.4 924.0,375.3 956.0,378.6 988.0,361.0 1020.0,368.1" class="line" stroke="#08306b"/>
<circle cx="92.0" cy="337.8" r="2.6" fill="#08306b"/>
<circle cx="220.0" cy="323.4" r="2.6" fill="#08306b"/>
<circle cx="348.0" cy="378.6" r="2.6" fill="#08306b"/>
<circle cx="476.0" cy="360.3" r="2.6" fill="#08306b"/>
<circle cx="604.0" cy="406.2" r="2.6" fill="#08306b"/>
<circle cx="732.0" cy="532.0" r="2.6" fill="#08306b"/>
<circle cx="860.0" cy="214.9" r="2.6" fill="#08306b"/>
<circle cx="988.0" cy="361.0" r="2.6" fill="#08306b"/>
<polyline points="92.0,311.9 124.0,184.6 156.0,174.0 188.0,169.2 220.0,277.0 252.0,357.6 284.0,359.6 316.0,358.5 348.0,356.3 380.0,354.0 412.0,310.3 444.0,310.0 476.0,314.5 508.0,319.2 540.0,326.6 572.0,329.7 604.0,385.9 636.0,197.3 668.0,208.2 700.0,537.0 732.0,504.3 764.0,431.4 796.0,246.8 828.0,184.4 860.0,179.2 892.0,324.5 924.0,357.4 956.0,356.4 988.0,318.0 1020.0,322.1" class="line" stroke="#238b45"/>
<circle cx="92.0" cy="311.9" r="2.6" fill="#238b45"/>
<circle cx="220.0" cy="277.0" r="2.6" fill="#238b45"/>
<circle cx="348.0" cy="356.3" r="2.6" fill="#238b45"/>
<circle cx="476.0" cy="314.5" r="2.6" fill="#238b45"/>
<circle cx="604.0" cy="385.9" r="2.6" fill="#238b45"/>
<circle cx="732.0" cy="504.3" r="2.6" fill="#238b45"/>
<circle cx="860.0" cy="179.2" r="2.6" fill="#238b45"/>
<circle cx="988.0" cy="318.0" r="2.6" fill="#238b45"/>
<polyline points="92.0,300.1 124.0,150.6 156.0,155.3 188.0,149.3 220.0,254.8 252.0,349.9 284.0,350.8 316.0,349.8 348.0,346.6 380.0,343.1 412.0,272.8 444.0,271.6 476.0,281.7 508.0,291.8 540.0,305.8 572.0,299.2 604.0,374.4 636.0,179.9 668.0,175.7 700.0,511.8 732.0,491.2 764.0,418.4 796.0,223.0 828.0,170.1 860.0,162.1 892.0,312.9 924.0,349.7 956.0,346.7 988.0,289.3 1020.0,289.8" class="line" stroke="#67000d"/>
<circle cx="92.0" cy="300.1" r="2.6" fill="#67000d"/>
<circle cx="220.0" cy="254.8" r="2.6" fill="#67000d"/>
<circle cx="348.0" cy="346.6" r="2.6" fill="#67000d"/>
<circle cx="476.0" cy="281.7" r="2.6" fill="#67000d"/>
<circle cx="604.0" cy="374.4" r="2.6" fill="#67000d"/>
<circle cx="732.0" cy="491.2" r="2.6" fill="#67000d"/>
<circle cx="860.0" cy="162.1" r="2.6" fill="#67000d"/>
<circle cx="988.0" cy="289.3" r="2.6" fill="#67000d"/>
<polyline points="92.0,327.9 124.0,216.5 156.0,202.1 188.0,197.0 220.0,307.4 252.0,367.9 284.0,370.9 316.0,370.5 348.0,369.5 380.0,369.2 412.0,341.0 444.0,341.0 476.0,342.9 508.0,345.5 540.0,350.4 572.0,357.5 604.0,395.5 636.0,232.1 668.0,248.6 700.0,569.4 732.0,519.1 764.0,442.7 796.0,273.1 828.0,211.3 860.0,205.6 892.0,332.8 924.0,367.6 956.0,369.5 988.0,344.8 1020.0,350.8" class="line" stroke="#54278f"/>
<circle cx="92.0" cy="327.9" r="2.6" fill="#54278f"/>
<circle cx="220.0" cy="307.4" r="2.6" fill="#54278f"/>
<circle cx="348.0" cy="369.5" r="2.6" fill="#54278f"/>
<circle cx="476.0" cy="342.9" r="2.6" fill="#54278f"/>
<circle cx="604.0" cy="395.5" r="2.6" fill="#54278f"/>
<circle cx="732.0" cy="519.1" r="2.6" fill="#54278f"/>
<circle cx="860.0" cy="205.6" r="2.6" fill="#54278f"/>
<circle cx="988.0" cy="344.8" r="2.6" fill="#54278f"/>
<text x="1048" y="65" class="label" font-weight="700">cases</text>
<line x1="1048" y1="85" x2="1076" y2="85" stroke="#08306b" stroke-width="3"/>
<text x="1084" y="89" class="legend">salt2_mainline</text>
<line x1="1048" y1="103" x2="1076" y2="103" stroke="#238b45" stroke-width="3"/>
<text x="1084" y="107" class="legend">salt3_mainline</text>
<line x1="1048" y1="121" x2="1076" y2="121" stroke="#67000d" stroke-width="3"/>
<text x="1084" y="125" class="legend">salt4_mainline</text>
<line x1="1048" y1="139" x2="1076" y2="139" stroke="#54278f" stroke-width="3"/>
<text x="1084" y="143" class="legend">val_salt2</text>
<text x="92" y="716" class="small">Note: diagnostic station means; not fit-admitted hydraulic coefficients.</text>
</svg>
