<svg xmlns="http://www.w3.org/2000/svg" width="1280" height="720" viewBox="0 0 1280 720">
<style>text{font-family:Arial,Helvetica,sans-serif;fill:#222}.axis{stroke:#333;stroke-width:1.2}.grid{stroke:#ddd;stroke-width:1}.line{fill:none;stroke-width:2.4}.thin{stroke-width:1.6}.label{font-size:13px}.small{font-size:11px}.title{font-size:22px;font-weight:700}.legend{font-size:12px}</style>
<rect x="0" y="0" width="1280" height="720" fill="white"/>
<text x="92" y="32" class="title">Pressure Map Through Loop: All Harvested Cases</text>
<rect x="77.6" y="55" width="156.8" height="547" fill="#fff7bc" opacity="0.45"/>
<text x="156.0" y="672" text-anchor="middle" class="small">lower_leg heater</text>
<rect x="237.6" y="55" width="156.8" height="547" fill="#d9f0d3" opacity="0.45"/>
<text x="316.0" y="672" text-anchor="middle" class="small">left lower upcomer</text>
<rect x="397.6" y="55" width="156.8" height="547" fill="#fee0d2" opacity="0.45"/>
<text x="476.0" y="672" text-anchor="middle" class="small">test section</text>
<rect x="557.6" y="55" width="156.8" height="547" fill="#c7e9c0" opacity="0.45"/>
<text x="636.0" y="672" text-anchor="middle" class="small">left upper upcomer</text>
<rect x="717.6" y="55" width="156.8" height="547" fill="#deebf7" opacity="0.45"/>
<text x="796.0" y="672" text-anchor="middle" class="small">upper cooled leg</text>
<rect x="877.6" y="55" width="156.8" height="547" fill="#e5e5e5" opacity="0.45"/>
<text x="956.0" y="672" text-anchor="middle" class="small">right downcomer</text>
<line x1="92" y1="602.0" x2="1020" y2="602.0" class="grid"/>
<text x="82" y="606.0" text-anchor="end" class="label">-20000</text>
<line x1="92" y1="492.6" x2="1020" y2="492.6" class="grid"/>
<text x="82" y="496.6" text-anchor="end" class="label">-15000</text>
<line x1="92" y1="383.2" x2="1020" y2="383.2" class="grid"/>
<text x="82" y="387.2" text-anchor="end" class="label">-10000</text>
<line x1="92" y1="273.8" x2="1020" y2="273.8" class="grid"/>
<text x="82" y="277.8" text-anchor="end" class="label">-5000</text>
<line x1="92" y1="164.4" x2="1020" y2="164.4" class="grid"/>
<text x="82" y="168.4" text-anchor="end" class="label">0</text>
<line x1="92" y1="55.0" x2="1020" y2="55.0" class="grid"/>
<text x="82" y="59.0" text-anchor="end" class="label">5000</text>
<line x1="92.0" y1="55" x2="92.0" y2="602" class="grid"/>
<text x="92.0" y="636" text-anchor="middle" class="small">0</text>
<line x1="252.0" y1="55" x2="252.0" y2="602" class="grid"/>
<text x="252.0" y="636" text-anchor="middle" class="small">5</text>
<line x1="412.0" y1="55" x2="412.0" y2="602" class="grid"/>
<text x="412.0" y="636" text-anchor="middle" class="small">10</text>
<line x1="572.0" y1="55" x2="572.0" y2="602" class="grid"/>
<text x="572.0" y="636" text-anchor="middle" class="small">15</text>
<line x1="732.0" y1="55" x2="732.0" y2="602" class="grid"/>
<text x="732.0" y="636" text-anchor="middle" class="small">20</text>
<line x1="892.0" y1="55" x2="892.0" y2="602" class="grid"/>
<text x="892.0" y="636" text-anchor="middle" class="small">25</text>
<line x1="1020.0" y1="55" x2="1020.0" y2="602" class="grid"/>
<text x="1020.0" y="636" text-anchor="middle" class="small">29</text>
<line x1="92" y1="602" x2="1020" y2="602" class="axis"/>
<line x1="92" y1="55" x2="92" y2="602" class="axis"/>
<text x="556.0" y="702" text-anchor="middle" class="label">loop-order station index, physical flow order</text>
<text x="22" y="328.5" transform="rotate(-90 22,328.5)" text-anchor="middle" class="label">mean static p [Pa]</text>
<polyline points="92.0,174.4 124.0,380.0 156.0,315.7 188.0,321.0 220.0,330.6 252.0,185.1 284.0,211.1 316.0,236.9 348.0,262.7 380.0,288.7 412.0,396.7 444.0,375.6 476.0,354.6 508.0,333.9 540.0,312.8 572.0,422.4 604.0,452.9 636.0,483.2 668.0,513.4 700.0,543.6 732.0,454.2 764.0,249.0 796.0,312.1 828.0,315.1 860.0,301.0 892.0,106.9 924.0,184.1 956.0,261.7 988.0,339.1 1020.0,416.7" class="line" stroke="#8c6d31"/>
<circle cx="92.0" cy="174.4" r="2.6" fill="#8c6d31"/>
<circle cx="220.0" cy="330.6" r="2.6" fill="#8c6d31"/>
<circle cx="348.0" cy="262.7" r="2.6" fill="#8c6d31"/>
<circle cx="476.0" cy="354.6" r="2.6" fill="#8c6d31"/>
<circle cx="604.0" cy="452.9" r="2.6" fill="#8c6d31"/>
<circle cx="732.0" cy="454.2" r="2.6" fill="#8c6d31"/>
<circle cx="860.0" cy="301.0" r="2.6" fill="#8c6d31"/>
<circle cx="988.0" cy="339.1" r="2.6" fill="#8c6d31"/>
<polyline points="92.0,174.5 124.0,380.7 156.0,316.2 188.0,321.4 220.0,331.1 252.0,185.1 284.0,211.3 316.0,237.1 348.0,263.0 380.0,289.1 412.0,397.4 444.0,376.3 476.0,355.2 508.0,334.4 540.0,313.3 572.0,423.2 604.0,453.8 636.0,484.2 668.0,514.4 700.0,544.8 732.0,455.1 764.0,249.3 796.0,312.6 828.0,315.5 860.0,301.4 892.0,106.7 924.0,184.2 956.0,262.1 988.0,339.7 1020.0,417.4" class="line" stroke="#bd9e39"/>
<circle cx="92.0" cy="174.5" r="2.6" fill="#bd9e39"/>
<circle cx="220.0" cy="331.1" r="2.6" fill="#bd9e39"/>
<circle cx="348.0" cy="263.0" r="2.6" fill="#bd9e39"/>
<circle cx="476.0" cy="355.2" r="2.6" fill="#bd9e39"/>
<circle cx="604.0" cy="453.8" r="2.6" fill="#bd9e39"/>
<circle cx="732.0" cy="455.1" r="2.6" fill="#bd9e39"/>
<circle cx="860.0" cy="301.4" r="2.6" fill="#bd9e39"/>
<circle cx="988.0" cy="339.7" r="2.6" fill="#bd9e39"/>
<polyline points="92.0,174.4 124.0,380.1 156.0,315.7 188.0,321.0 220.0,330.6 252.0,185.1 284.0,211.1 316.0,236.9 348.0,262.7 380.0,288.7 412.0,396.7 444.0,375.6 476.0,354.6 508.0,333.9 540.0,312.8 572.0,422.4 604.0,452.9 636.0,483.2 668.0,513.4 700.0,543.6 732.0,454.3 764.0,249.0 796.0,312.1 828.0,315.1 860.0,301.0 892.0,106.9 924.0,184.1 956.0,261.7 988.0,339.1 1020.0,416.7" class="line" stroke="#e7ba52"/>
<circle cx="92.0" cy="174.4" r="2.6" fill="#e7ba52"/>
<circle cx="220.0" cy="330.6" r="2.6" fill="#e7ba52"/>
<circle cx="348.0" cy="262.7" r="2.6" fill="#e7ba52"/>
<circle cx="476.0" cy="354.6" r="2.6" fill="#e7ba52"/>
<circle cx="604.0" cy="452.9" r="2.6" fill="#e7ba52"/>
<circle cx="732.0" cy="454.3" r="2.6" fill="#e7ba52"/>
<circle cx="860.0" cy="301.0" r="2.6" fill="#e7ba52"/>
<circle cx="988.0" cy="339.1" r="2.6" fill="#e7ba52"/>
<polyline points="92.0,174.3 124.0,378.2 156.0,314.3 188.0,319.6 220.0,329.2 252.0,184.8 284.0,210.6 316.0,236.2 348.0,261.8 380.0,287.6 412.0,394.7 444.0,373.8 476.0,352.9 508.0,332.4 540.0,311.5 572.0,420.2 604.0,450.4 636.0,480.5 668.0,510.4 700.0,540.4 732.0,451.8 764.0,248.2 796.0,310.8 828.0,313.7 860.0,299.7 892.0,107.2 924.0,183.8 956.0,260.8 988.0,337.6 1020.0,414.5" class="line" stroke="#1f77b4"/>
<circle cx="92.0" cy="174.3" r="2.6" fill="#1f77b4"/>
<circle cx="220.0" cy="329.2" r="2.6" fill="#1f77b4"/>
<circle cx="348.0" cy="261.8" r="2.6" fill="#1f77b4"/>
<circle cx="476.0" cy="352.9" r="2.6" fill="#1f77b4"/>
<circle cx="604.0" cy="450.4" r="2.6" fill="#1f77b4"/>
<circle cx="732.0" cy="451.8" r="2.6" fill="#1f77b4"/>
<circle cx="860.0" cy="299.7" r="2.6" fill="#1f77b4"/>
<circle cx="988.0" cy="337.6" r="2.6" fill="#1f77b4"/>
<polyline points="92.0,174.3 124.0,378.5 156.0,314.6 188.0,319.8 220.0,329.5 252.0,184.8 284.0,210.7 316.0,236.3 348.0,262.0 380.0,287.8 412.0,395.1 444.0,374.2 476.0,353.3 508.0,332.7 540.0,311.8 572.0,420.6 604.0,451.0 636.0,481.0 668.0,511.0 700.0,541.1 732.0,452.3 764.0,248.4 796.0,311.1 828.0,314.0 860.0,300.0 892.0,107.1 924.0,183.9 956.0,261.0 988.0,337.9 1020.0,414.9" class="line" stroke="#6baed6"/>
<circle cx="92.0" cy="174.3" r="2.6" fill="#6baed6"/>
<circle cx="220.0" cy="329.5" r="2.6" fill="#6baed6"/>
<circle cx="348.0" cy="262.0" r="2.6" fill="#6baed6"/>
<circle cx="476.0" cy="353.3" r="2.6" fill="#6baed6"/>
<circle cx="604.0" cy="451.0" r="2.6" fill="#6baed6"/>
<circle cx="732.0" cy="452.3" r="2.6" fill="#6baed6"/>
<circle cx="860.0" cy="300.0" r="2.6" fill="#6baed6"/>
<circle cx="988.0" cy="337.9" r="2.6" fill="#6baed6"/>
<polyline points="92.0,174.3 124.0,378.3 156.0,314.5 188.0,319.7 220.0,329.3 252.0,184.8 284.0,210.7 316.0,236.3 348.0,261.9 380.0,287.7 412.0,394.8 444.0,374.0 476.0,353.1 508.0,332.5 540.0,311.6 572.0,420.4 604.0,450.7 636.0,480.7 668.0,510.7 700.0,540.7 732.0,452.0 764.0,248.3 796.0,310.9 828.0,313.9 860.0,299.8 892.0,107.2 924.0,183.9 956.0,260.9 988.0,337.7 1020.0,414.7" class="line" stroke="#08306b"/>
<circle cx="92.0" cy="174.3" r="2.6" fill="#08306b"/>
<circle cx="220.0" cy="329.3" r="2.6" fill="#08306b"/>
<circle cx="348.0" cy="261.9" r="2.6" fill="#08306b"/>
<circle cx="476.0" cy="353.1" r="2.6" fill="#08306b"/>
<circle cx="604.0" cy="450.7" r="2.6" fill="#08306b"/>
<circle cx="732.0" cy="452.0" r="2.6" fill="#08306b"/>
<circle cx="860.0" cy="299.8" r="2.6" fill="#08306b"/>
<circle cx="988.0" cy="337.7" r="2.6" fill="#08306b"/>
<polyline points="92.0,174.2 124.0,377.2 156.0,313.7 188.0,318.9 220.0,328.4 252.0,184.7 284.0,210.4 316.0,235.9 348.0,261.3 380.0,287.1 412.0,393.6 444.0,372.9 476.0,352.1 508.0,331.6 540.0,310.8 572.0,419.0 604.0,449.2 636.0,479.1 668.0,508.9 700.0,538.8 732.0,450.5 764.0,247.8 796.0,310.2 828.0,313.1 860.0,299.1 892.0,107.4 924.0,183.7 956.0,260.4 988.0,336.8 1020.0,413.4" class="line" stroke="#238b45"/>
<circle cx="92.0" cy="174.2" r="2.6" fill="#238b45"/>
<circle cx="220.0" cy="328.4" r="2.6" fill="#238b45"/>
<circle cx="348.0" cy="261.3" r="2.6" fill="#238b45"/>
<circle cx="476.0" cy="352.1" r="2.6" fill="#238b45"/>
<circle cx="604.0" cy="449.2" r="2.6" fill="#238b45"/>
<circle cx="732.0" cy="450.5" r="2.6" fill="#238b45"/>
<circle cx="860.0" cy="299.1" r="2.6" fill="#238b45"/>
<circle cx="988.0" cy="336.8" r="2.6" fill="#238b45"/>
<polyline points="92.0,174.1 124.0,375.8 156.0,312.7 188.0,317.8 220.0,327.3 252.0,184.5 284.0,210.1 316.0,235.4 348.0,260.7 380.0,286.2 412.0,392.1 444.0,371.5 476.0,350.9 508.0,330.5 540.0,309.9 572.0,417.3 604.0,447.3 636.0,477.0 668.0,506.6 700.0,536.3 732.0,448.6 764.0,247.3 796.0,309.2 828.0,312.1 860.0,298.2 892.0,107.8 924.0,183.6 956.0,259.8 988.0,335.7 1020.0,411.7" class="line" stroke="#cb181d"/>
<circle cx="92.0" cy="174.1" r="2.6" fill="#cb181d"/>
<circle cx="220.0" cy="327.3" r="2.6" fill="#cb181d"/>
<circle cx="348.0" cy="260.7" r="2.6" fill="#cb181d"/>
<circle cx="476.0" cy="350.9" r="2.6" fill="#cb181d"/>
<circle cx="604.0" cy="447.3" r="2.6" fill="#cb181d"/>
<circle cx="732.0" cy="448.6" r="2.6" fill="#cb181d"/>
<circle cx="860.0" cy="298.2" r="2.6" fill="#cb181d"/>
<circle cx="988.0" cy="335.7" r="2.6" fill="#cb181d"/>
<polyline points="92.0,174.1 124.0,376.1 156.0,312.9 188.0,318.1 220.0,327.6 252.0,184.6 284.0,210.2 316.0,235.5 348.0,260.9 380.0,286.4 412.0,392.5 444.0,371.8 476.0,351.2 508.0,330.8 540.0,310.1 572.0,417.8 604.0,447.8 636.0,477.5 668.0,507.2 700.0,536.9 732.0,449.1 764.0,247.4 796.0,309.4 828.0,312.3 860.0,298.5 892.0,107.7 924.0,183.6 956.0,259.9 988.0,336.0 1020.0,412.2" class="line" stroke="#fb6a4a"/>
<circle cx="92.0" cy="174.1" r="2.6" fill="#fb6a4a"/>
<circle cx="220.0" cy="327.6" r="2.6" fill="#fb6a4a"/>
<circle cx="348.0" cy="260.9" r="2.6" fill="#fb6a4a"/>
<circle cx="476.0" cy="351.2" r="2.6" fill="#fb6a4a"/>
<circle cx="604.0" cy="447.8" r="2.6" fill="#fb6a4a"/>
<circle cx="732.0" cy="449.1" r="2.6" fill="#fb6a4a"/>
<circle cx="860.0" cy="298.5" r="2.6" fill="#fb6a4a"/>
<circle cx="988.0" cy="336.0" r="2.6" fill="#fb6a4a"/>
<polyline points="92.0,174.1 124.0,375.9 156.0,312.8 188.0,317.9 220.0,327.4 252.0,184.5 284.0,210.1 316.0,235.4 348.0,260.8 380.0,286.3 412.0,392.3 444.0,371.6 476.0,351.0 508.0,330.6 540.0,310.0 572.0,417.5 604.0,447.5 636.0,477.2 668.0,506.9 700.0,536.6 732.0,448.8 764.0,247.3 796.0,309.3 828.0,312.2 860.0,298.3 892.0,107.8 924.0,183.6 956.0,259.8 988.0,335.8 1020.0,411.9" class="line" stroke="#67000d"/>
<circle cx="92.0" cy="174.1" r="2.6" fill="#67000d"/>
<circle cx="220.0" cy="327.4" r="2.6" fill="#67000d"/>
<circle cx="348.0" cy="260.8" r="2.6" fill="#67000d"/>
<circle cx="476.0" cy="351.0" r="2.6" fill="#67000d"/>
<circle cx="604.0" cy="447.5" r="2.6" fill="#67000d"/>
<circle cx="732.0" cy="448.8" r="2.6" fill="#67000d"/>
<circle cx="860.0" cy="298.3" r="2.6" fill="#67000d"/>
<circle cx="988.0" cy="335.8" r="2.6" fill="#67000d"/>
<polyline points="92.0,174.2 124.0,377.9 156.0,314.2 188.0,319.4 220.0,329.0 252.0,184.8 284.0,210.6 316.0,236.1 348.0,261.7 380.0,287.5 412.0,394.4 444.0,373.5 476.0,352.7 508.0,332.2 540.0,311.3 572.0,419.9 604.0,450.1 636.0,480.1 668.0,510.0 700.0,540.0 732.0,451.5 764.0,248.1 796.0,310.6 828.0,313.5 860.0,299.6 892.0,107.3 924.0,183.8 956.0,260.7 988.0,337.4 1020.0,414.2" class="line" stroke="#54278f"/>
<circle cx="92.0" cy="174.2" r="2.6" fill="#54278f"/>
<circle cx="220.0" cy="329.0" r="2.6" fill="#54278f"/>
<circle cx="348.0" cy="261.7" r="2.6" fill="#54278f"/>
<circle cx="476.0" cy="352.7" r="2.6" fill="#54278f"/>
<circle cx="604.0" cy="450.1" r="2.6" fill="#54278f"/>
<circle cx="732.0" cy="451.5" r="2.6" fill="#54278f"/>
<circle cx="860.0" cy="299.6" r="2.6" fill="#54278f"/>
<circle cx="988.0" cy="337.4" r="2.6" fill="#54278f"/>
<text x="1048" y="65" class="label" font-weight="700">cases</text>
<line x1="1048" y1="85" x2="1076" y2="85" stroke="#8c6d31" stroke-width="3"/>
<text x="1084" y="89" class="legend">salt1_hi10q</text>
<line x1="1048" y1="103" x2="1076" y2="103" stroke="#bd9e39" stroke-width="3"/>
<text x="1084" y="107" class="legend">salt1_lo10q</text>
<line x1="1048" y1="121" x2="1076" y2="121" stroke="#e7ba52" stroke-width="3"/>
<text x="1084" y="125" class="legend">salt1_nominal</text>
<line x1="1048" y1="139" x2="1076" y2="139" stroke="#1f77b4" stroke-width="3"/>
<text x="1084" y="143" class="legend">salt2_hi5q</text>
<line x1="1048" y1="157" x2="1076" y2="157" stroke="#6baed6" stroke-width="3"/>
<text x="1084" y="161" class="legend">salt2_lo5q</text>
<line x1="1048" y1="175" x2="1076" y2="175" stroke="#08306b" stroke-width="3"/>
<text x="1084" y="179" class="legend">salt2_mainline</text>
<line x1="1048" y1="193" x2="1076" y2="193" stroke="#238b45" stroke-width="3"/>
<text x="1084" y="197" class="legend">salt3_mainline</text>
<line x1="1048" y1="211" x2="1076" y2="211" stroke="#cb181d" stroke-width="3"/>
<text x="1084" y="215" class="legend">salt4_hi5q</text>
<line x1="1048" y1="229" x2="1076" y2="229" stroke="#fb6a4a" stroke-width="3"/>
<text x="1084" y="233" class="legend">salt4_lo5q</text>
<line x1="1048" y1="247" x2="1076" y2="247" stroke="#67000d" stroke-width="3"/>
<text x="1084" y="251" class="legend">salt4_mainline</text>
<line x1="1048" y1="265" x2="1076" y2="265" stroke="#54278f" stroke-width="3"/>
<text x="1084" y="269" class="legend">val_salt2</text>
<text x="92" y="716" class="small">Note: diagnostic station means; not fit-admitted hydraulic coefficients.</text>
</svg>
