<svg xmlns="http://www.w3.org/2000/svg" width="1100" height="650" viewBox="0 0 1100 650">
<style>text{font-family:Arial,Helvetica,sans-serif;fill:#222}.title{font-size:22px;font-weight:700}.label{font-size:13px}.small{font-size:11px}.grid{stroke:#ddd}.axis{stroke:#333;stroke-width:1.2}</style>
<rect x="0" y="0" width="1100" height="650" fill="white"/>
<text x="90" y="35" class="title">Junction/Stub Heat Loss Split</text>
<line x1="90" x2="940" y1="530.0" y2="530.0" class="grid"/>
<text x="82" y="534.0" text-anchor="end" class="small">0</text>
<line x1="90" x2="940" y1="296.6" y2="296.6" class="grid"/>
<text x="82" y="300.6" text-anchor="end" class="small">10</text>
<line x1="90" x2="940" y1="63.2" y2="63.2" class="grid"/>
<text x="82" y="67.2" text-anchor="end" class="small">20</text>
<line x1="90" x2="940" y1="530" y2="530" class="axis"/>
<line x1="90" x2="90" y1="60" y2="530" class="axis"/>
<rect x="155.7" y="350.7" width="36.0" height="179.3" fill="#4c78a8"/>
<rect x="193.7" y="353.7" width="36.0" height="176.3" fill="#f58518"/>
<rect x="231.7" y="302.4" width="36.0" height="227.6" fill="#54a24b"/>
<rect x="269.7" y="200.0" width="36.0" height="330.0" fill="#b279a2"/>
<text x="231.7" y="562" text-anchor="middle" class="small">salt2_mainline</text>
<rect x="439.0" y="329.5" width="36.0" height="200.5" fill="#4c78a8"/>
<rect x="477.0" y="333.6" width="36.0" height="196.4" fill="#f58518"/>
<rect x="515.0" y="282.8" width="36.0" height="247.2" fill="#54a24b"/>
<rect x="553.0" y="164.9" width="36.0" height="365.1" fill="#b279a2"/>
<text x="515.0" y="562" text-anchor="middle" class="small">salt3_mainline</text>
<rect x="722.3" y="302.1" width="36.0" height="227.9" fill="#4c78a8"/>
<rect x="760.3" y="308.3" width="36.0" height="221.7" fill="#f58518"/>
<rect x="798.3" y="256.6" width="36.0" height="273.4" fill="#54a24b"/>
<rect x="836.3" y="121.3" width="36.0" height="408.7" fill="#b279a2"/>
<text x="798.3" y="562" text-anchor="middle" class="small">salt4_mainline</text>
<text x="515.0" y="604" text-anchor="middle" class="label">case</text>
<text x="28" y="295.0" transform="rotate(-90 28,295.0)" text-anchor="middle" class="label">external heat loss [W]</text>
<rect x="955" y="80" width="16" height="12" fill="#4c78a8"/>
<text x="977" y="91" class="small">lower_left</text>
<rect x="955" y="104" width="16" height="12" fill="#f58518"/>
<text x="977" y="115" class="small">lower_right</text>
<rect x="955" y="128" width="16" height="12" fill="#54a24b"/>
<text x="977" y="139" class="small">upper_left</text>
<rect x="955" y="152" width="16" height="12" fill="#b279a2"/>
<text x="977" y="163" class="small">upper_right</text>
</svg>
