<svg xmlns="http://www.w3.org/2000/svg" width="1040" height="868" viewBox="0 0 1040 868">
<!-- AGENT-234 · source pressure_term_ledger.csv · generated 2026-07-09T15:21:49 · values in figure_data.csv · see DATA_DISCLOSURE.md -->
<rect x="0" y="0" width="1040" height="868" fill="#fcfcfb"/>
<style>
text{font-family:system-ui,-apple-system,"Segoe UI",Helvetica,Arial,sans-serif;fill:#0b0b0b}
.title{font-size:19px;font-weight:700;fill:#0b0b0b}
.subtitle{font-size:11.5px;fill:#52514e}
.section{font-size:12px;font-weight:700;fill:#52514e}
.spanlbl{font-size:11px;fill:#0b0b0b}
.spanlbl-r{font-size:11px;fill:#898781;font-style:italic}
.axislbl{font-size:11px;fill:#52514e}
.tick{font-size:10px;fill:#898781;font-variant-numeric:tabular-nums}
.val{font-size:10px;fill:#0b0b0b;font-weight:600;font-variant-numeric:tabular-nums}
.valg{font-size:10px;fill:#006300;font-weight:600;font-variant-numeric:tabular-nums}
.legend{font-size:11px;fill:#0b0b0b}
.note{font-size:10px;fill:#898781}
</style>
<text x="22.0" y="30.0" class="title">Buoyancy drive vs mechanical resistance by span</text>
<text x="22.0" y="50.0" class="subtitle">Bar length is magnitude in Pa; buoyancy labels keep their sign (negative = drives flow downward in the downcomer).</text>
<line x1="200.0" y1="82.0" x2="200.0" y2="772.0" stroke="#e1e0d9" stroke-width="1.0"/>
<text x="200.0" y="74.0" text-anchor="middle" class="tick">0.00</text>
<line x1="387.0" y1="82.0" x2="387.0" y2="772.0" stroke="#e1e0d9" stroke-width="1.0"/>
<text x="387.0" y="74.0" text-anchor="middle" class="tick">10.0</text>
<line x1="574.0" y1="82.0" x2="574.0" y2="772.0" stroke="#e1e0d9" stroke-width="1.0"/>
<text x="574.0" y="74.0" text-anchor="middle" class="tick">20.0</text>
<line x1="761.0" y1="82.0" x2="761.0" y2="772.0" stroke="#e1e0d9" stroke-width="1.0"/>
<text x="761.0" y="74.0" text-anchor="middle" class="tick">30.0</text>
<line x1="948.0" y1="82.0" x2="948.0" y2="772.0" stroke="#e1e0d9" stroke-width="1.0"/>
<text x="948.0" y="74.0" text-anchor="middle" class="tick">40.0</text>
<line x1="200.0" y1="82.0" x2="200.0" y2="772.0" stroke="#c3c2b7" stroke-width="1.0"/>
<line x1="200.0" y1="772.0" x2="948.0" y2="772.0" stroke="#c3c2b7" stroke-width="1.0"/>
<text x="22.0" y="99.0" class="section">Salt 2</text>
<line x1="22.0" y1="104.0" x2="948.0" y2="104.0" stroke="#e1e0d9" stroke-width="1.0"/>
<text x="190.0" y="128.0" text-anchor="end" class="spanlbl">Lower leg (heater)</text>
<path d="M200.0,114.5 H294.6 Q297.6,114.5 297.6,117.5 V120.5 Q297.6,123.5 294.6,123.5 H200.0 Z" fill="#008300"/>
<text x="303.6" y="122.5" class="valg">+5.2</text>
<path d="M200.0,126.5 H372.3 Q375.3,126.5 375.3,129.5 V132.5 Q375.3,135.5 372.3,135.5 H200.0 Z" fill="#2a78d6"/>
<text x="381.3" y="134.5" class="val">9.4</text>
<text x="190.0" y="162.0" text-anchor="end" class="spanlbl">Right leg (downcomer)</text>
<path d="M200.0,148.5 H224.7 Q227.7,148.5 227.7,151.5 V154.5 Q227.7,157.5 224.7,157.5 H200.0 Z" fill="#008300"/>
<text x="233.7" y="156.5" class="valg">+1.5</text>
<path d="M200.0,160.5 H371.6 Q374.6,160.5 374.6,163.5 V166.5 Q374.6,169.5 371.6,169.5 H200.0 Z" fill="#2a78d6"/>
<text x="380.6" y="168.5" class="val">9.3</text>
<text x="190.0" y="196.0" text-anchor="end" class="spanlbl-r">Left lower (upcomer) *</text>
<path d="M200.0,182.5 H205.7 Q208.7,182.5 208.7,185.5 V188.5 Q208.7,191.5 205.7,191.5 H200.0 Z" fill="#008300"/>
<text x="214.7" y="190.5" class="valg">+0.47</text>
<path d="M200.0,194.5 H241.0 Q244.0,194.5 244.0,197.5 V200.5 Q244.0,203.5 241.0,203.5 H200.0 Z" fill="#2a78d6"/>
<text x="250.0" y="202.5" class="val">2.4</text>
<text x="190.0" y="230.0" text-anchor="end" class="spanlbl">Test section</text>
<path d="M200.0,216.5 H210.9 Q213.9,216.5 213.9,219.5 V222.5 Q213.9,225.5 210.9,225.5 H200.0 Z" fill="#008300"/>
<text x="219.9" y="224.5" class="valg">+0.75</text>
<path d="M200.0,228.5 H222.6 Q225.6,228.5 225.6,231.5 V234.5 Q225.6,237.5 222.6,237.5 H200.0 Z" fill="#2a78d6"/>
<text x="231.6" y="236.5" class="val">1.4</text>
<text x="190.0" y="264.0" text-anchor="end" class="spanlbl-r">Left upper (upcomer) *</text>
<path d="M200.0,250.5 H222.9 Q225.9,250.5 225.9,253.5 V256.5 Q225.9,259.5 222.9,259.5 H200.0 Z" fill="#008300"/>
<text x="231.9" y="258.5" class="valg">+1.4</text>
<path d="M200.0,262.5 H226.5 Q229.5,262.5 229.5,265.5 V268.5 Q229.5,271.5 226.5,271.5 H200.0 Z" fill="#2a78d6"/>
<text x="235.5" y="270.5" class="val">1.6</text>
<text x="190.0" y="298.0" text-anchor="end" class="spanlbl">Upper leg (downcomer)</text>
<path d="M200.0,284.5 H931.4 Q934.4,284.5 934.4,287.5 V290.5 Q934.4,293.5 931.4,293.5 H200.0 Z" fill="#008300"/>
<text x="940.4" y="292.5" class="valg">−39.3</text>
<path d="M200.0,296.5 H358.0 Q361.0,296.5 361.0,299.5 V302.5 Q361.0,305.5 358.0,305.5 H200.0 Z" fill="#2a78d6"/>
<text x="367.0" y="304.5" class="val">8.6</text>
<text x="22.0" y="329.0" class="section">Salt 3</text>
<line x1="22.0" y1="334.0" x2="948.0" y2="334.0" stroke="#e1e0d9" stroke-width="1.0"/>
<text x="190.0" y="358.0" text-anchor="end" class="spanlbl">Lower leg (heater)</text>
<path d="M200.0,344.5 H298.7 Q301.7,344.5 301.7,347.5 V350.5 Q301.7,353.5 298.7,353.5 H200.0 Z" fill="#008300"/>
<text x="307.7" y="352.5" class="valg">+5.4</text>
<path d="M200.0,356.5 H376.2 Q379.2,356.5 379.2,359.5 V362.5 Q379.2,365.5 376.2,365.5 H200.0 Z" fill="#2a78d6"/>
<text x="385.2" y="364.5" class="val">9.6</text>
<text x="190.0" y="392.0" text-anchor="end" class="spanlbl">Right leg (downcomer)</text>
<path d="M200.0,378.5 H217.0 Q220.0,378.5 220.0,381.5 V384.5 Q220.0,387.5 217.0,387.5 H200.0 Z" fill="#008300"/>
<text x="226.0" y="386.5" class="valg">+1.1</text>
<path d="M200.0,390.5 H409.7 Q412.7,390.5 412.7,393.5 V396.5 Q412.7,399.5 409.7,399.5 H200.0 Z" fill="#2a78d6"/>
<text x="418.7" y="398.5" class="val">11.4</text>
<text x="190.0" y="426.0" text-anchor="end" class="spanlbl-r">Left lower (upcomer) *</text>
<path d="M200.0,412.5 H204.9 Q207.9,412.5 207.9,415.5 V418.5 Q207.9,421.5 204.9,421.5 H200.0 Z" fill="#008300"/>
<text x="213.9" y="420.5" class="valg">+0.42</text>
<path d="M200.0,424.5 H246.4 Q249.4,424.5 249.4,427.5 V430.5 Q249.4,433.5 246.4,433.5 H200.0 Z" fill="#2a78d6"/>
<text x="255.4" y="432.5" class="val">2.6</text>
<text x="190.0" y="460.0" text-anchor="end" class="spanlbl">Test section</text>
<path d="M200.0,446.5 H210.2 Q213.2,446.5 213.2,449.5 V452.5 Q213.2,455.5 210.2,455.5 H200.0 Z" fill="#008300"/>
<text x="219.2" y="454.5" class="valg">+0.70</text>
<path d="M200.0,458.5 H217.2 Q220.2,458.5 220.2,461.5 V464.5 Q220.2,467.5 217.2,467.5 H200.0 Z" fill="#2a78d6"/>
<text x="226.2" y="466.5" class="val">1.1</text>
<text x="190.0" y="494.0" text-anchor="end" class="spanlbl-r">Left upper (upcomer) *</text>
<path d="M200.0,480.5 H221.8 Q224.8,480.5 224.8,483.5 V486.5 Q224.8,489.5 221.8,489.5 H200.0 Z" fill="#008300"/>
<text x="230.8" y="488.5" class="valg">+1.3</text>
<path d="M200.0,492.5 H225.0 Q228.0,492.5 228.0,495.5 V498.5 Q228.0,501.5 225.0,501.5 H200.0 Z" fill="#2a78d6"/>
<text x="234.0" y="500.5" class="val">1.5</text>
<text x="190.0" y="528.0" text-anchor="end" class="spanlbl">Upper leg (downcomer)</text>
<path d="M200.0,514.5 H908.0 Q911.0,514.5 911.0,517.5 V520.5 Q911.0,523.5 908.0,523.5 H200.0 Z" fill="#008300"/>
<text x="917.0" y="522.5" class="valg">−38.0</text>
<path d="M200.0,526.5 H363.0 Q366.0,526.5 366.0,529.5 V532.5 Q366.0,535.5 363.0,535.5 H200.0 Z" fill="#2a78d6"/>
<text x="372.0" y="534.5" class="val">8.9</text>
<text x="22.0" y="559.0" class="section">Salt 4</text>
<line x1="22.0" y1="564.0" x2="948.0" y2="564.0" stroke="#e1e0d9" stroke-width="1.0"/>
<text x="190.0" y="588.0" text-anchor="end" class="spanlbl">Lower leg (heater)</text>
<path d="M200.0,574.5 H295.0 Q298.0,574.5 298.0,577.5 V580.5 Q298.0,583.5 295.0,583.5 H200.0 Z" fill="#008300"/>
<text x="304.0" y="582.5" class="valg">+5.2</text>
<path d="M200.0,586.5 H386.7 Q389.7,586.5 389.7,589.5 V592.5 Q389.7,595.5 386.7,595.5 H200.0 Z" fill="#2a78d6"/>
<text x="395.7" y="594.5" class="val">10.1</text>
<text x="190.0" y="622.0" text-anchor="end" class="spanlbl">Right leg (downcomer)</text>
<path d="M200.0,608.5 H210.8 Q213.8,608.5 213.8,611.5 V614.5 Q213.8,617.5 210.8,617.5 H200.0 Z" fill="#008300"/>
<text x="219.8" y="616.5" class="valg">+0.74</text>
<path d="M200.0,620.5 H444.6 Q447.6,620.5 447.6,623.5 V626.5 Q447.6,629.5 444.6,629.5 H200.0 Z" fill="#2a78d6"/>
<text x="453.6" y="628.5" class="val">13.2</text>
<text x="190.0" y="656.0" text-anchor="end" class="spanlbl-r">Left lower (upcomer) *</text>
<path d="M200.0,642.5 H204.7 Q207.7,642.5 207.7,645.5 V648.5 Q207.7,651.5 204.7,651.5 H200.0 Z" fill="#008300"/>
<text x="213.7" y="650.5" class="valg">+0.41</text>
<path d="M200.0,654.5 H255.7 Q258.7,654.5 258.7,657.5 V660.5 Q258.7,663.5 255.7,663.5 H200.0 Z" fill="#2a78d6"/>
<text x="264.7" y="662.5" class="val">3.1</text>
<text x="190.0" y="690.0" text-anchor="end" class="spanlbl">Test section</text>
<path d="M200.0,676.5 H208.7 Q211.7,676.5 211.7,679.5 V682.5 Q211.7,685.5 208.7,685.5 H200.0 Z" fill="#008300"/>
<text x="217.7" y="684.5" class="valg">+0.62</text>
<path d="M200.0,688.5 H213.6 Q216.6,688.5 216.6,691.5 V694.5 Q216.6,697.5 213.6,697.5 H200.0 Z" fill="#2a78d6"/>
<text x="222.6" y="696.5" class="val">0.89</text>
<text x="190.0" y="724.0" text-anchor="end" class="spanlbl-r">Left upper (upcomer) *</text>
<path d="M200.0,710.5 H224.4 Q227.4,710.5 227.4,713.5 V716.5 Q227.4,719.5 224.4,719.5 H200.0 Z" fill="#008300"/>
<text x="233.4" y="718.5" class="valg">+1.5</text>
<path d="M200.0,722.5 H226.4 Q229.4,722.5 229.4,725.5 V728.5 Q229.4,731.5 226.4,731.5 H200.0 Z" fill="#2a78d6"/>
<text x="235.4" y="730.5" class="val">1.6</text>
<text x="190.0" y="758.0" text-anchor="end" class="spanlbl">Upper leg (downcomer)</text>
<path d="M200.0,744.5 H878.6 Q881.6,744.5 881.6,747.5 V750.5 Q881.6,753.5 878.6,753.5 H200.0 Z" fill="#008300"/>
<text x="887.6" y="752.5" class="valg">−36.4</text>
<path d="M200.0,756.5 H370.9 Q373.9,756.5 373.9,759.5 V762.5 Q373.9,765.5 370.9,765.5 H200.0 Z" fill="#2a78d6"/>
<text x="379.9" y="764.5" class="val">9.3</text>
<text x="574.0" y="804.0" text-anchor="middle" class="axislbl">Magnitude over span (Pa)</text>
<rect x="22.0" y="804.0" width="13" height="13" fill="#008300" rx="2"/>
<text x="41.0" y="814.0" class="legend">buoyancy driving term (|gh·Δρ·L|, sign in label)</text>
<rect x="362.8" y="804.0" width="13" height="13" fill="#2a78d6" rx="2"/>
<text x="381.8" y="814.0" class="legend">total mechanical resistance (friction + dev + minor)</text>
<text x="22.0" y="836.0" class="note">Buoyancy is reversible (a driving head), not a loss; a negative sign means it acts opposite to the reference flow direction and drives the downcomer.</text>
<text x="22.0" y="849.0" class="note">* upcomer recirculation span — single-stream interpretation is diagnostic only. Source: 2026-07-08 pressure term ledger.</text>
</svg>