<svg xmlns="http://www.w3.org/2000/svg" width="720" height="500" viewBox="0 0 720 500">
<style>text{font-family:Arial,sans-serif;font-size:12px;fill:#1f2933}.title{font-size:18px;font-weight:700}.axis{stroke:#394b59;stroke-width:1}.grid{stroke:#d9e2ec;stroke-width:1}.zero{stroke:#d64545;stroke-width:1.2;stroke-dasharray:4 3}.label{font-size:11px}.small{font-size:10px}</style>
<rect width="100%" height="100%" fill="#ffffff"/>
<text class="title" x="40" y="35">Global Bias vs Local Shape Error</text>
<text x="40" y="56">Left/right position is mean signed error; vertical position is RMSE after removing group bias.</text>
<line class="grid" x1="80" y1="70" x2="80" y2="420"/>
<text class="small" text-anchor="middle" x="80" y="438">-225</text>
<line class="grid" x1="80" y1="420" x2="640" y2="420"/>
<text class="small" text-anchor="end" x="72" y="424">0</text>
<line class="grid" x1="220.0" y1="70" x2="220.0" y2="420"/>
<text class="small" text-anchor="middle" x="220.0" y="438">-150</text>
<line class="grid" x1="80" y1="332.5" x2="640" y2="332.5"/>
<text class="small" text-anchor="end" x="72" y="336.5">5</text>
<line class="grid" x1="360.0" y1="70" x2="360.0" y2="420"/>
<text class="small" text-anchor="middle" x="360.0" y="438">-75</text>
<line class="grid" x1="80" y1="245.0" x2="640" y2="245.0"/>
<text class="small" text-anchor="end" x="72" y="249.0">10</text>
<line class="zero" x1="500.0" y1="70" x2="500.0" y2="420"/>
<text class="small" text-anchor="middle" x="500.0" y="438">0</text>
<line class="grid" x1="80" y1="157.5" x2="640" y2="157.5"/>
<text class="small" text-anchor="end" x="72" y="161.5">15</text>
<line class="grid" x1="640.0" y1="70" x2="640.0" y2="420"/>
<text class="small" text-anchor="middle" x="640.0" y="438">75</text>
<line class="grid" x1="80" y1="70.0" x2="640" y2="70.0"/>
<text class="small" text-anchor="end" x="72" y="74.0">20</text>
<line class="axis" x1="80" y1="420" x2="640" y2="420"/>
<line class="axis" x1="80" y1="70" x2="80" y2="420"/>
<text class="label" text-anchor="middle" x="360.0" y="465">mean signed error K</text>
<text class="label" transform="translate(20 245.0) rotate(-90)" text-anchor="middle">local shape RMSE after bias K</text>
<circle cx="361.6" cy="353.5" r="5" fill="#c2410c" opacity="0.85"/>
<rect x="353.5" y="219.7" width="10" height="10" fill="#c2410c" opacity="0.85"/>
<circle cx="144.1" cy="330.7" r="5" fill="#c2410c" opacity="0.85"/>
<rect x="135.6" y="194.3" width="10" height="10" fill="#c2410c" opacity="0.85"/>
<circle cx="119.0" cy="225.4" r="5" fill="#c2410c" opacity="0.85"/>
<rect x="100.9" y="98.0" width="10" height="10" fill="#c2410c" opacity="0.85"/>
<circle cx="167.5" cy="329.4" r="5" fill="#7c3aed" opacity="0.85"/>
<rect x="157.7" y="202.8" width="10" height="10" fill="#7c3aed" opacity="0.85"/>
<circle cx="631.8" cy="331.4" r="5" fill="#7c3aed" opacity="0.85"/>
<rect x="619.7" y="194.7" width="10" height="10" fill="#7c3aed" opacity="0.85"/>
<circle cx="114.7" cy="333.7" r="5" fill="#7c3aed" opacity="0.85"/>
<rect x="107.3" y="182.8" width="10" height="10" fill="#7c3aed" opacity="0.85"/>
<circle cx="461.6" cy="344.3" r="5" fill="#0f766e" opacity="0.85"/>
<rect x="451.7" y="215.4" width="10" height="10" fill="#0f766e" opacity="0.85"/>
<circle cx="456.7" cy="345.8" r="5" fill="#0f766e" opacity="0.85"/>
<rect x="448.1" y="206.5" width="10" height="10" fill="#0f766e" opacity="0.85"/>
<circle cx="449.1" cy="350.1" r="5" fill="#0f766e" opacity="0.85"/>
<rect x="441.5" y="194.8" width="10" height="10" fill="#0f766e" opacity="0.85"/>
<circle cx="471.8" cy="347.5" r="5" fill="#2563eb" opacity="0.85"/>
<rect x="462.1" y="217.1" width="10" height="10" fill="#2563eb" opacity="0.85"/>
<circle cx="474.8" cy="350.4" r="5" fill="#2563eb" opacity="0.85"/>
<rect x="466.4" y="208.7" width="10" height="10" fill="#2563eb" opacity="0.85"/>
<circle cx="476.6" cy="355.9" r="5" fill="#2563eb" opacity="0.85"/>
<rect x="469.1" y="197.5" width="10" height="10" fill="#2563eb" opacity="0.85"/>
<circle cx="440" cy="90" r="5" fill="#c2410c"/><text x="452" y="94">M1</text>
<circle cx="440" cy="112" r="5" fill="#7c3aed"/><text x="452" y="116">M1b</text>
<circle cx="440" cy="134" r="5" fill="#0f766e"/><text x="452" y="138">M2</text>
<circle cx="440" cy="156" r="5" fill="#2563eb"/><text x="452" y="160">M3</text>
<circle cx="525" cy="90" r="5" fill="#64748b"/><text x="538" y="94">TP</text>
<rect x="520" y="107" width="10" height="10" fill="#64748b"/><text x="538" y="117">TW</text>
</svg>
