<svg xmlns="http://www.w3.org/2000/svg" width="1120" height="760" viewBox="0 0 1120 760">
<style>text{font-family:Arial,sans-serif;font-size:12px;fill:#1f2933}.title{font-size:18px;font-weight:700}.axis{stroke:#394b59;stroke-width:1}.grid{stroke:#d9e2ec;stroke-width:1}.zero{stroke:#d64545;stroke-width:1.2;stroke-dasharray:4 3}.label{font-size:11px}.small{font-size:10px}</style>
<rect width="100%" height="100%" fill="#ffffff"/>
<text class="title" x="40" y="34">Signed Sensor Error Shape by Model Form</text>
<text x="40" y="55">Signed error = predicted temperature - CFD target. Negative values mean the 1D model is cold.</text>
<text x="70" y="66" font-weight="700">salt_2 TP</text>
<line class="grid" x1="70" y1="330" x2="390" y2="330"/>
<text class="small" x="28" y="334">-250</text>
<line class="grid" x1="70" y1="267.5" x2="390" y2="267.5"/>
<text class="small" x="28" y="271.5">-162</text>
<line class="grid" x1="70" y1="205.0" x2="390" y2="205.0"/>
<text class="small" x="28" y="209.0">-75</text>
<line class="grid" x1="70" y1="142.5" x2="390" y2="142.5"/>
<text class="small" x="28" y="146.5">12</text>
<line class="grid" x1="70" y1="80.0" x2="390" y2="80.0"/>
<text class="small" x="28" y="84.0">100</text>
<line class="axis" x1="70" y1="80" x2="70" y2="330"/>
<line class="axis" x1="70" y1="330" x2="390" y2="330"/>
<text class="small" text-anchor="middle" x="70.0" y="346">TP1</text>
<text class="small" text-anchor="middle" x="134.0" y="346">TP2</text>
<text class="small" text-anchor="middle" x="198.0" y="346">TP3</text>
<text class="small" text-anchor="middle" x="262.0" y="346">TP4</text>
<text class="small" text-anchor="middle" x="326.0" y="346">TP5</text>
<text class="small" text-anchor="middle" x="390.0" y="346">TP6</text>
<polyline points="70.0,209.3 198.0,201.4 262.0,202.8 326.0,203.5 390.0,205.1" fill="none" stroke="#c2410c" stroke-width="2"/>
<circle cx="70.0" cy="209.3" r="3" fill="#c2410c"/>
<circle cx="198.0" cy="201.4" r="3" fill="#c2410c"/>
<circle cx="262.0" cy="202.8" r="3" fill="#c2410c"/>
<circle cx="326.0" cy="203.5" r="3" fill="#c2410c"/>
<circle cx="390.0" cy="205.1" r="3" fill="#c2410c"/>
<polyline points="70.0,285.6 198.0,275.0 262.0,276.4 326.0,277.1 390.0,279.1" fill="none" stroke="#7c3aed" stroke-width="2"/>
<circle cx="70.0" cy="285.6" r="3" fill="#7c3aed"/>
<circle cx="198.0" cy="275.0" r="3" fill="#7c3aed"/>
<circle cx="262.0" cy="276.4" r="3" fill="#7c3aed"/>
<circle cx="326.0" cy="277.1" r="3" fill="#7c3aed"/>
<circle cx="390.0" cy="279.1" r="3" fill="#7c3aed"/>
<polyline points="70.0,171.5 198.0,162.4 262.0,164.2 326.0,165.6 390.0,166.9" fill="none" stroke="#0f766e" stroke-width="2"/>
<circle cx="70.0" cy="171.5" r="3" fill="#0f766e"/>
<circle cx="198.0" cy="162.4" r="3" fill="#0f766e"/>
<circle cx="262.0" cy="164.2" r="3" fill="#0f766e"/>
<circle cx="326.0" cy="165.6" r="3" fill="#0f766e"/>
<circle cx="390.0" cy="166.9" r="3" fill="#0f766e"/>
<polyline points="70.0,167.4 198.0,158.7 262.0,160.4 326.0,161.6 390.0,162.9" fill="none" stroke="#2563eb" stroke-width="2"/>
<circle cx="70.0" cy="167.4" r="3" fill="#2563eb"/>
<circle cx="198.0" cy="158.7" r="3" fill="#2563eb"/>
<circle cx="262.0" cy="160.4" r="3" fill="#2563eb"/>
<circle cx="326.0" cy="161.6" r="3" fill="#2563eb"/>
<circle cx="390.0" cy="162.9" r="3" fill="#2563eb"/>
<text x="70" y="371" font-weight="700">salt_2 TW</text>
<line class="grid" x1="70" y1="635" x2="390" y2="635"/>
<text class="small" x="28" y="639">-250</text>
<line class="grid" x1="70" y1="572.5" x2="390" y2="572.5"/>
<text class="small" x="28" y="576.5">-162</text>
<line class="grid" x1="70" y1="510.0" x2="390" y2="510.0"/>
<text class="small" x="28" y="514.0">-75</text>
<line class="grid" x1="70" y1="447.5" x2="390" y2="447.5"/>
<text class="small" x="28" y="451.5">12</text>
<line class="grid" x1="70" y1="385.0" x2="390" y2="385.0"/>
<text class="small" x="28" y="389.0">100</text>
<line class="axis" x1="70" y1="385" x2="70" y2="635"/>
<line class="axis" x1="70" y1="635" x2="390" y2="635"/>
<text class="small" text-anchor="middle" x="70.0" y="651">TW1</text>
<text class="small" text-anchor="middle" x="102.0" y="651">TW2</text>
<text class="small" text-anchor="middle" x="134.0" y="651">TW3</text>
<text class="small" text-anchor="middle" x="166.0" y="651">TW4</text>
<text class="small" text-anchor="middle" x="198.0" y="651">TW5</text>
<text class="small" text-anchor="middle" x="230.0" y="651">TW6</text>
<text class="small" text-anchor="middle" x="262.0" y="651">TW7</text>
<text class="small" text-anchor="middle" x="294.0" y="651">TW8</text>
<text class="small" text-anchor="middle" x="326.0" y="651">TW9</text>
<text class="small" text-anchor="middle" x="358.0" y="651">TW10</text>
<text class="small" text-anchor="middle" x="390.0" y="651">TW11</text>
<polyline points="70.0,526.9 102.0,523.9 134.0,508.2 166.0,507.3 198.0,506.2 230.0,505.3 262.0,509.6 294.0,509.6 326.0,499.4 390.0,509.5" fill="none" stroke="#c2410c" stroke-width="2"/>
<circle cx="70.0" cy="526.9" r="3" fill="#c2410c"/>
<circle cx="102.0" cy="523.9" r="3" fill="#c2410c"/>
<circle cx="134.0" cy="508.2" r="3" fill="#c2410c"/>
<circle cx="166.0" cy="507.3" r="3" fill="#c2410c"/>
<circle cx="198.0" cy="506.2" r="3" fill="#c2410c"/>
<circle cx="230.0" cy="505.3" r="3" fill="#c2410c"/>
<circle cx="262.0" cy="509.6" r="3" fill="#c2410c"/>
<circle cx="294.0" cy="509.6" r="3" fill="#c2410c"/>
<circle cx="326.0" cy="499.4" r="3" fill="#c2410c"/>
<circle cx="390.0" cy="509.5" r="3" fill="#c2410c"/>
<polyline points="70.0,603.0 102.0,600.0 134.0,584.5 166.0,582.9 198.0,581.0 230.0,579.3 262.0,582.9 294.0,583.1 326.0,573.0 390.0,585.1" fill="none" stroke="#7c3aed" stroke-width="2"/>
<circle cx="70.0" cy="603.0" r="3" fill="#7c3aed"/>
<circle cx="102.0" cy="600.0" r="3" fill="#7c3aed"/>
<circle cx="134.0" cy="584.5" r="3" fill="#7c3aed"/>
<circle cx="166.0" cy="582.9" r="3" fill="#7c3aed"/>
<circle cx="198.0" cy="581.0" r="3" fill="#7c3aed"/>
<circle cx="230.0" cy="579.3" r="3" fill="#7c3aed"/>
<circle cx="262.0" cy="582.9" r="3" fill="#7c3aed"/>
<circle cx="294.0" cy="583.1" r="3" fill="#7c3aed"/>
<circle cx="326.0" cy="573.0" r="3" fill="#7c3aed"/>
<circle cx="390.0" cy="585.1" r="3" fill="#7c3aed"/>
<polyline points="70.0,489.5 102.0,486.6 134.0,471.0 166.0,469.8 198.0,468.4 230.0,467.0 262.0,471.2 294.0,471.9 326.0,461.7 390.0,472.9" fill="none" stroke="#0f766e" stroke-width="2"/>
<circle cx="70.0" cy="489.5" r="3" fill="#0f766e"/>
<circle cx="102.0" cy="486.6" r="3" fill="#0f766e"/>
<circle cx="134.0" cy="471.0" r="3" fill="#0f766e"/>
<circle cx="166.0" cy="469.8" r="3" fill="#0f766e"/>
<circle cx="198.0" cy="468.4" r="3" fill="#0f766e"/>
<circle cx="230.0" cy="467.0" r="3" fill="#0f766e"/>
<circle cx="262.0" cy="471.2" r="3" fill="#0f766e"/>
<circle cx="294.0" cy="471.9" r="3" fill="#0f766e"/>
<circle cx="326.0" cy="461.7" r="3" fill="#0f766e"/>
<circle cx="390.0" cy="472.9" r="3" fill="#0f766e"/>
<polyline points="70.0,485.5 102.0,482.5 134.0,466.9 166.0,465.8 198.0,464.5 230.0,463.2 262.0,467.5 294.0,468.0 326.0,457.8 390.0,468.8" fill="none" stroke="#2563eb" stroke-width="2"/>
<circle cx="70.0" cy="485.5" r="3" fill="#2563eb"/>
<circle cx="102.0" cy="482.5" r="3" fill="#2563eb"/>
<circle cx="134.0" cy="466.9" r="3" fill="#2563eb"/>
<circle cx="166.0" cy="465.8" r="3" fill="#2563eb"/>
<circle cx="198.0" cy="464.5" r="3" fill="#2563eb"/>
<circle cx="230.0" cy="463.2" r="3" fill="#2563eb"/>
<circle cx="262.0" cy="467.5" r="3" fill="#2563eb"/>
<circle cx="294.0" cy="468.0" r="3" fill="#2563eb"/>
<circle cx="326.0" cy="457.8" r="3" fill="#2563eb"/>
<circle cx="390.0" cy="468.8" r="3" fill="#2563eb"/>
<text x="430" y="66" font-weight="700">salt_3 TP</text>
<line class="grid" x1="430" y1="330" x2="750" y2="330"/>
<text class="small" x="388" y="334">-250</text>
<line class="grid" x1="430" y1="267.5" x2="750" y2="267.5"/>
<text class="small" x="388" y="271.5">-162</text>
<line class="grid" x1="430" y1="205.0" x2="750" y2="205.0"/>
<text class="small" x="388" y="209.0">-75</text>
<line class="grid" x1="430" y1="142.5" x2="750" y2="142.5"/>
<text class="small" x="388" y="146.5">12</text>
<line class="grid" x1="430" y1="80.0" x2="750" y2="80.0"/>
<text class="small" x="388" y="84.0">100</text>
<line class="axis" x1="430" y1="80" x2="430" y2="330"/>
<line class="axis" x1="430" y1="330" x2="750" y2="330"/>
<text class="small" text-anchor="middle" x="430.0" y="346">TP1</text>
<text class="small" text-anchor="middle" x="494.0" y="346">TP2</text>
<text class="small" text-anchor="middle" x="558.0" y="346">TP3</text>
<text class="small" text-anchor="middle" x="622.0" y="346">TP4</text>
<text class="small" text-anchor="middle" x="686.0" y="346">TP5</text>
<text class="small" text-anchor="middle" x="750.0" y="346">TP6</text>
<polyline points="430.0,294.5 558.0,284.0 622.0,285.6 686.0,286.1 750.0,288.0" fill="none" stroke="#c2410c" stroke-width="2"/>
<circle cx="430.0" cy="294.5" r="3" fill="#c2410c"/>
<circle cx="558.0" cy="284.0" r="3" fill="#c2410c"/>
<circle cx="622.0" cy="285.6" r="3" fill="#c2410c"/>
<circle cx="686.0" cy="286.1" r="3" fill="#c2410c"/>
<circle cx="750.0" cy="288.0" r="3" fill="#c2410c"/>
<polyline points="430.0,107.8 558.0,97.4 622.0,98.9 686.0,99.5 750.0,101.4" fill="none" stroke="#7c3aed" stroke-width="2"/>
<circle cx="430.0" cy="107.8" r="3" fill="#7c3aed"/>
<circle cx="558.0" cy="97.4" r="3" fill="#7c3aed"/>
<circle cx="622.0" cy="98.9" r="3" fill="#7c3aed"/>
<circle cx="686.0" cy="99.5" r="3" fill="#7c3aed"/>
<circle cx="750.0" cy="101.4" r="3" fill="#7c3aed"/>
<polyline points="430.0,173.3 558.0,164.3 622.0,166.2 686.0,167.5 750.0,168.7" fill="none" stroke="#0f766e" stroke-width="2"/>
<circle cx="430.0" cy="173.3" r="3" fill="#0f766e"/>
<circle cx="558.0" cy="164.3" r="3" fill="#0f766e"/>
<circle cx="622.0" cy="166.2" r="3" fill="#0f766e"/>
<circle cx="686.0" cy="167.5" r="3" fill="#0f766e"/>
<circle cx="750.0" cy="168.7" r="3" fill="#0f766e"/>
<polyline points="430.0,166.1 558.0,157.6 622.0,159.5 686.0,160.5 750.0,161.7" fill="none" stroke="#2563eb" stroke-width="2"/>
<circle cx="430.0" cy="166.1" r="3" fill="#2563eb"/>
<circle cx="558.0" cy="157.6" r="3" fill="#2563eb"/>
<circle cx="622.0" cy="159.5" r="3" fill="#2563eb"/>
<circle cx="686.0" cy="160.5" r="3" fill="#2563eb"/>
<circle cx="750.0" cy="161.7" r="3" fill="#2563eb"/>
<text x="430" y="371" font-weight="700">salt_3 TW</text>
<line class="grid" x1="430" y1="635" x2="750" y2="635"/>
<text class="small" x="388" y="639">-250</text>
<line class="grid" x1="430" y1="572.5" x2="750" y2="572.5"/>
<text class="small" x="388" y="576.5">-162</text>
<line class="grid" x1="430" y1="510.0" x2="750" y2="510.0"/>
<text class="small" x="388" y="514.0">-75</text>
<line class="grid" x1="430" y1="447.5" x2="750" y2="447.5"/>
<text class="small" x="388" y="451.5">12</text>
<line class="grid" x1="430" y1="385.0" x2="750" y2="385.0"/>
<text class="small" x="388" y="389.0">100</text>
<line class="axis" x1="430" y1="385" x2="430" y2="635"/>
<line class="axis" x1="430" y1="635" x2="750" y2="635"/>
<text class="small" text-anchor="middle" x="430.0" y="651">TW1</text>
<text class="small" text-anchor="middle" x="462.0" y="651">TW2</text>
<text class="small" text-anchor="middle" x="494.0" y="651">TW3</text>
<text class="small" text-anchor="middle" x="526.0" y="651">TW4</text>
<text class="small" text-anchor="middle" x="558.0" y="651">TW5</text>
<text class="small" text-anchor="middle" x="590.0" y="651">TW6</text>
<text class="small" text-anchor="middle" x="622.0" y="651">TW7</text>
<text class="small" text-anchor="middle" x="654.0" y="651">TW8</text>
<text class="small" text-anchor="middle" x="686.0" y="651">TW9</text>
<text class="small" text-anchor="middle" x="718.0" y="651">TW10</text>
<text class="small" text-anchor="middle" x="750.0" y="651">TW11</text>
<polyline points="430.0,612.2 462.0,609.1 494.0,592.9 526.0,591.0 558.0,589.0 590.0,587.2 622.0,592.0 654.0,591.8 686.0,581.2 750.0,593.0" fill="none" stroke="#c2410c" stroke-width="2"/>
<circle cx="430.0" cy="612.2" r="3" fill="#c2410c"/>
<circle cx="462.0" cy="609.1" r="3" fill="#c2410c"/>
<circle cx="494.0" cy="592.9" r="3" fill="#c2410c"/>
<circle cx="526.0" cy="591.0" r="3" fill="#c2410c"/>
<circle cx="558.0" cy="589.0" r="3" fill="#c2410c"/>
<circle cx="590.0" cy="587.2" r="3" fill="#c2410c"/>
<circle cx="622.0" cy="592.0" r="3" fill="#c2410c"/>
<circle cx="654.0" cy="591.8" r="3" fill="#c2410c"/>
<circle cx="686.0" cy="581.2" r="3" fill="#c2410c"/>
<circle cx="750.0" cy="593.0" r="3" fill="#c2410c"/>
<polyline points="430.0,426.8 462.0,423.8 494.0,407.5 526.0,405.7 558.0,403.9 590.0,402.0 622.0,407.0 654.0,406.7 686.0,395.9 750.0,407.6" fill="none" stroke="#7c3aed" stroke-width="2"/>
<circle cx="430.0" cy="426.8" r="3" fill="#7c3aed"/>
<circle cx="462.0" cy="423.8" r="3" fill="#7c3aed"/>
<circle cx="494.0" cy="407.5" r="3" fill="#7c3aed"/>
<circle cx="526.0" cy="405.7" r="3" fill="#7c3aed"/>
<circle cx="558.0" cy="403.9" r="3" fill="#7c3aed"/>
<circle cx="590.0" cy="402.0" r="3" fill="#7c3aed"/>
<circle cx="622.0" cy="407.0" r="3" fill="#7c3aed"/>
<circle cx="654.0" cy="406.7" r="3" fill="#7c3aed"/>
<circle cx="686.0" cy="395.9" r="3" fill="#7c3aed"/>
<circle cx="750.0" cy="407.6" r="3" fill="#7c3aed"/>
<polyline points="430.0,491.7 462.0,488.6 494.0,472.3 526.0,470.9 558.0,469.3 590.0,467.8 622.0,473.2 654.0,473.6 686.0,462.7 750.0,473.7" fill="none" stroke="#0f766e" stroke-width="2"/>
<circle cx="430.0" cy="491.7" r="3" fill="#0f766e"/>
<circle cx="462.0" cy="488.6" r="3" fill="#0f766e"/>
<circle cx="494.0" cy="472.3" r="3" fill="#0f766e"/>
<circle cx="526.0" cy="470.9" r="3" fill="#0f766e"/>
<circle cx="558.0" cy="469.3" r="3" fill="#0f766e"/>
<circle cx="590.0" cy="467.8" r="3" fill="#0f766e"/>
<circle cx="622.0" cy="473.2" r="3" fill="#0f766e"/>
<circle cx="654.0" cy="473.6" r="3" fill="#0f766e"/>
<circle cx="686.0" cy="462.7" r="3" fill="#0f766e"/>
<circle cx="750.0" cy="473.7" r="3" fill="#0f766e"/>
<polyline points="430.0,484.5 462.0,481.4 494.0,465.1 526.0,463.8 558.0,462.4 590.0,461.0 622.0,466.6 654.0,466.6 686.0,455.8 750.0,466.5" fill="none" stroke="#2563eb" stroke-width="2"/>
<circle cx="430.0" cy="484.5" r="3" fill="#2563eb"/>
<circle cx="462.0" cy="481.4" r="3" fill="#2563eb"/>
<circle cx="494.0" cy="465.1" r="3" fill="#2563eb"/>
<circle cx="526.0" cy="463.8" r="3" fill="#2563eb"/>
<circle cx="558.0" cy="462.4" r="3" fill="#2563eb"/>
<circle cx="590.0" cy="461.0" r="3" fill="#2563eb"/>
<circle cx="622.0" cy="466.6" r="3" fill="#2563eb"/>
<circle cx="654.0" cy="466.6" r="3" fill="#2563eb"/>
<circle cx="686.0" cy="455.8" r="3" fill="#2563eb"/>
<circle cx="750.0" cy="466.5" r="3" fill="#2563eb"/>
<text x="790" y="66" font-weight="700">salt_4 TP</text>
<line class="grid" x1="790" y1="330" x2="1110" y2="330"/>
<text class="small" x="748" y="334">-250</text>
<line class="grid" x1="790" y1="267.5" x2="1110" y2="267.5"/>
<text class="small" x="748" y="271.5">-162</text>
<line class="grid" x1="790" y1="205.0" x2="1110" y2="205.0"/>
<text class="small" x="748" y="209.0">-75</text>
<line class="grid" x1="790" y1="142.5" x2="1110" y2="142.5"/>
<text class="small" x="748" y="146.5">12</text>
<line class="grid" x1="790" y1="80.0" x2="1110" y2="80.0"/>
<text class="small" x="748" y="84.0">100</text>
<line class="axis" x1="790" y1="80" x2="790" y2="330"/>
<line class="axis" x1="790" y1="330" x2="1110" y2="330"/>
<text class="small" text-anchor="middle" x="790.0" y="346">TP1</text>
<text class="small" text-anchor="middle" x="854.0" y="346">TP2</text>
<text class="small" text-anchor="middle" x="918.0" y="346">TP3</text>
<text class="small" text-anchor="middle" x="982.0" y="346">TP4</text>
<text class="small" text-anchor="middle" x="1046.0" y="346">TP5</text>
<text class="small" text-anchor="middle" x="1110.0" y="346">TP6</text>
<polyline points="790.0,312.7 918.0,291.4 982.0,292.5 1046.0,292.9 1110.0,296.6" fill="none" stroke="#c2410c" stroke-width="2"/>
<circle cx="790.0" cy="312.7" r="3" fill="#c2410c"/>
<circle cx="918.0" cy="291.4" r="3" fill="#c2410c"/>
<circle cx="982.0" cy="292.5" r="3" fill="#c2410c"/>
<circle cx="1046.0" cy="292.9" r="3" fill="#c2410c"/>
<circle cx="1110.0" cy="296.6" r="3" fill="#c2410c"/>
<polyline points="790.0,305.5 918.0,295.7 982.0,296.8 1046.0,297.1 1110.0,299.1" fill="none" stroke="#7c3aed" stroke-width="2"/>
<circle cx="790.0" cy="305.5" r="3" fill="#7c3aed"/>
<circle cx="918.0" cy="295.7" r="3" fill="#7c3aed"/>
<circle cx="982.0" cy="296.8" r="3" fill="#7c3aed"/>
<circle cx="1046.0" cy="297.1" r="3" fill="#7c3aed"/>
<circle cx="1110.0" cy="299.1" r="3" fill="#7c3aed"/>
<polyline points="790.0,176.0 918.0,167.6 982.0,169.1 1046.0,170.3 1110.0,171.4" fill="none" stroke="#0f766e" stroke-width="2"/>
<circle cx="790.0" cy="176.0" r="3" fill="#0f766e"/>
<circle cx="918.0" cy="167.6" r="3" fill="#0f766e"/>
<circle cx="982.0" cy="169.1" r="3" fill="#0f766e"/>
<circle cx="1046.0" cy="170.3" r="3" fill="#0f766e"/>
<circle cx="1110.0" cy="171.4" r="3" fill="#0f766e"/>
<polyline points="790.0,165.1 918.0,157.4 982.0,158.9 1046.0,159.7 1110.0,160.8" fill="none" stroke="#2563eb" stroke-width="2"/>
<circle cx="790.0" cy="165.1" r="3" fill="#2563eb"/>
<circle cx="918.0" cy="157.4" r="3" fill="#2563eb"/>
<circle cx="982.0" cy="158.9" r="3" fill="#2563eb"/>
<circle cx="1046.0" cy="159.7" r="3" fill="#2563eb"/>
<circle cx="1110.0" cy="160.8" r="3" fill="#2563eb"/>
<text x="790" y="371" font-weight="700">salt_4 TW</text>
<line class="grid" x1="790" y1="635" x2="1110" y2="635"/>
<text class="small" x="748" y="639">-250</text>
<line class="grid" x1="790" y1="572.5" x2="1110" y2="572.5"/>
<text class="small" x="748" y="576.5">-162</text>
<line class="grid" x1="790" y1="510.0" x2="1110" y2="510.0"/>
<text class="small" x="748" y="514.0">-75</text>
<line class="grid" x1="790" y1="447.5" x2="1110" y2="447.5"/>
<text class="small" x="748" y="451.5">12</text>
<line class="grid" x1="790" y1="385.0" x2="1110" y2="385.0"/>
<text class="small" x="748" y="389.0">100</text>
<line class="axis" x1="790" y1="385" x2="790" y2="635"/>
<line class="axis" x1="790" y1="635" x2="1110" y2="635"/>
<text class="small" text-anchor="middle" x="790.0" y="651">TW1</text>
<text class="small" text-anchor="middle" x="822.0" y="651">TW2</text>
<text class="small" text-anchor="middle" x="854.0" y="651">TW3</text>
<text class="small" text-anchor="middle" x="886.0" y="651">TW4</text>
<text class="small" text-anchor="middle" x="918.0" y="651">TW5</text>
<text class="small" text-anchor="middle" x="950.0" y="651">TW6</text>
<text class="small" text-anchor="middle" x="982.0" y="651">TW7</text>
<text class="small" text-anchor="middle" x="1014.0" y="651">TW8</text>
<text class="small" text-anchor="middle" x="1046.0" y="651">TW9</text>
<text class="small" text-anchor="middle" x="1078.0" y="651">TW10</text>
<text class="small" text-anchor="middle" x="1110.0" y="651">TW11</text>
<polyline points="790.0,631.4 822.0,628.6 854.0,612.1 886.0,606.7 918.0,601.4 950.0,596.1 982.0,599.2 1014.0,599.3 1046.0,589.2 1110.0,608.4" fill="none" stroke="#c2410c" stroke-width="2"/>
<circle cx="790.0" cy="631.4" r="3" fill="#c2410c"/>
<circle cx="822.0" cy="628.6" r="3" fill="#c2410c"/>
<circle cx="854.0" cy="612.1" r="3" fill="#c2410c"/>
<circle cx="886.0" cy="606.7" r="3" fill="#c2410c"/>
<circle cx="918.0" cy="601.4" r="3" fill="#c2410c"/>
<circle cx="950.0" cy="596.1" r="3" fill="#c2410c"/>
<circle cx="982.0" cy="599.2" r="3" fill="#c2410c"/>
<circle cx="1014.0" cy="599.3" r="3" fill="#c2410c"/>
<circle cx="1046.0" cy="589.2" r="3" fill="#c2410c"/>
<circle cx="1110.0" cy="608.4" r="3" fill="#c2410c"/>
<polyline points="790.0,623.9 822.0,620.8 854.0,604.0 886.0,601.5 918.0,599.3 950.0,597.2 982.0,603.5 1014.0,602.7 1046.0,591.7 1110.0,603.3" fill="none" stroke="#7c3aed" stroke-width="2"/>
<circle cx="790.0" cy="623.9" r="3" fill="#7c3aed"/>
<circle cx="822.0" cy="620.8" r="3" fill="#7c3aed"/>
<circle cx="854.0" cy="604.0" r="3" fill="#7c3aed"/>
<circle cx="886.0" cy="601.5" r="3" fill="#7c3aed"/>
<circle cx="918.0" cy="599.3" r="3" fill="#7c3aed"/>
<circle cx="950.0" cy="597.2" r="3" fill="#7c3aed"/>
<circle cx="982.0" cy="603.5" r="3" fill="#7c3aed"/>
<circle cx="1014.0" cy="602.7" r="3" fill="#7c3aed"/>
<circle cx="1046.0" cy="591.7" r="3" fill="#7c3aed"/>
<circle cx="1110.0" cy="603.3" r="3" fill="#7c3aed"/>
<polyline points="790.0,495.0 822.0,492.0 854.0,475.1 886.0,473.0 918.0,471.3 950.0,469.5 982.0,476.4 1014.0,476.3 1046.0,464.9 1110.0,475.6" fill="none" stroke="#0f766e" stroke-width="2"/>
<circle cx="790.0" cy="495.0" r="3" fill="#0f766e"/>
<circle cx="822.0" cy="492.0" r="3" fill="#0f766e"/>
<circle cx="854.0" cy="475.1" r="3" fill="#0f766e"/>
<circle cx="886.0" cy="473.0" r="3" fill="#0f766e"/>
<circle cx="918.0" cy="471.3" r="3" fill="#0f766e"/>
<circle cx="950.0" cy="469.5" r="3" fill="#0f766e"/>
<circle cx="982.0" cy="476.4" r="3" fill="#0f766e"/>
<circle cx="1014.0" cy="476.3" r="3" fill="#0f766e"/>
<circle cx="1046.0" cy="464.9" r="3" fill="#0f766e"/>
<circle cx="1110.0" cy="475.6" r="3" fill="#0f766e"/>
<polyline points="790.0,484.2 822.0,481.2 854.0,464.4 886.0,462.4 918.0,460.8 950.0,459.2 982.0,466.2 1014.0,465.7 1046.0,454.4 1110.0,464.8" fill="none" stroke="#2563eb" stroke-width="2"/>
<circle cx="790.0" cy="484.2" r="3" fill="#2563eb"/>
<circle cx="822.0" cy="481.2" r="3" fill="#2563eb"/>
<circle cx="854.0" cy="464.4" r="3" fill="#2563eb"/>
<circle cx="886.0" cy="462.4" r="3" fill="#2563eb"/>
<circle cx="918.0" cy="460.8" r="3" fill="#2563eb"/>
<circle cx="950.0" cy="459.2" r="3" fill="#2563eb"/>
<circle cx="982.0" cy="466.2" r="3" fill="#2563eb"/>
<circle cx="1014.0" cy="465.7" r="3" fill="#2563eb"/>
<circle cx="1046.0" cy="454.4" r="3" fill="#2563eb"/>
<circle cx="1110.0" cy="464.8" r="3" fill="#2563eb"/>
<line x1="830" y1="36" x2="855" y2="36" stroke="#c2410c" stroke-width="3"/>
<text x="860" y="40">M1</text>
<line x1="900" y1="36" x2="925" y2="36" stroke="#7c3aed" stroke-width="3"/>
<text x="930" y="40">M1b</text>
<line x1="970" y1="36" x2="995" y2="36" stroke="#0f766e" stroke-width="3"/>
<text x="1000" y="40">M2</text>
<line x1="1040" y1="36" x2="1065" y2="36" stroke="#2563eb" stroke-width="3"/>
<text x="1070" y="40">M3</text>
</svg>
