<svg xmlns="http://www.w3.org/2000/svg" width="1180" height="680" viewBox="0 0 1180 680">
<rect x="0" y="0" width="1180" height="680" fill="#FFFFFF"/>
<style>
text{font-family:Arial,Helvetica,sans-serif;fill:#111827}
.title{font-size:22px;font-weight:700}
.subtitle{font-size:12px;fill:#4B5563}
.tick{font-size:11px;fill:#4B5563}
.small{font-size:10px;fill:#4B5563}
.label{font-size:12px;fill:#111827}
.legend{font-size:11px;fill:#111827}
.axis{stroke:#374151;stroke-width:1}
.grid{stroke:#E5E7EB;stroke-width:1}
</style>
<text x="86" y="34" class="title">Corner losses do not explain the distributed friction excess</text>
<text x="86" y="56" class="subtitle">Mean Salt 2/3/4 main-pipe spans; upcomer excluded because recirculation invalidates single-stream friction</text>
<line x1="86" y1="535.0" x2="1144" y2="535.0" class="grid"/>
<text x="76" y="539.0" text-anchor="end" class="tick">0</text>
<line x1="86" y1="423.2" x2="1144" y2="423.2" class="grid"/>
<text x="76" y="427.2" text-anchor="end" class="tick">0.5</text>
<line x1="86" y1="311.5" x2="1144" y2="311.5" class="grid"/>
<text x="76" y="315.5" text-anchor="end" class="tick">1</text>
<line x1="86" y1="199.8" x2="1144" y2="199.8" class="grid"/>
<text x="76" y="203.8" text-anchor="end" class="tick">1.5</text>
<line x1="86" y1="88.0" x2="1144" y2="88.0" class="grid"/>
<text x="76" y="92.0" text-anchor="end" class="tick">2</text>
<line x1="86" y1="535.0" x2="1144" y2="535.0" class="axis"/>
<text x="24" y="311.5" class="label" transform="rotate(-90 24 311.5)">phi relative to F3 Shah</text>
<rect x="214.3" y="129.7" width="39.4" height="405.3" fill="#7C3AED"/>
<text x="234.0" y="124.7" text-anchor="middle" class="small">1.81</text>
<rect x="262.3" y="169.6" width="39.4" height="365.4" fill="#15803D"/>
<text x="282.0" y="164.6" text-anchor="middle" class="small">1.63</text>
<text x="262.3" y="563" text-anchor="middle" class="tick">heater</text>
<rect x="567.0" y="191.9" width="39.4" height="343.1" fill="#7C3AED"/>
<text x="586.7" y="186.9" text-anchor="middle" class="small">1.54</text>
<rect x="615.0" y="224.2" width="39.4" height="310.8" fill="#15803D"/>
<text x="634.7" y="219.2" text-anchor="middle" class="small">1.39</text>
<text x="615.0" y="563" text-anchor="middle" class="tick">cooler</text>
<rect x="919.7" y="130.2" width="39.4" height="404.8" fill="#7C3AED"/>
<text x="939.3" y="125.2" text-anchor="middle" class="small">1.81</text>
<rect x="967.7" y="165.9" width="39.4" height="369.1" fill="#15803D"/>
<text x="987.3" y="160.9" text-anchor="middle" class="small">1.65</text>
<text x="967.7" y="563" text-anchor="middle" class="tick">downcomer</text>
<rect x="86" y="598" width="12" height="12" fill="#7C3AED"/>
<text x="104" y="608" class="legend">phi original</text>
<rect x="296" y="598" width="12" height="12" fill="#15803D"/>
<text x="314" y="608" class="legend">phi pipe only</text>
<text x="86" y="642" class="small">Corner attribution removes about 9-10% of main-pipe span pressure drop, but phi_pipe_only remains about 1.39-1.65.</text>
</svg>
