<svg xmlns="http://www.w3.org/2000/svg" width="1180" height="680" viewBox="0 0 1180 680">
<rect x="0" y="0" width="1180" height="680" fill="#FFFFFF"/>
<style>
text{font-family:Arial,Helvetica,sans-serif;fill:#111827}
.title{font-size:22px;font-weight:700}
.subtitle{font-size:12px;fill:#4B5563}
.tick{font-size:11px;fill:#4B5563}
.small{font-size:10px;fill:#4B5563}
.label{font-size:12px;fill:#111827}
.legend{font-size:11px;fill:#111827}
.axis{stroke:#374151;stroke-width:1}
.grid{stroke:#E5E7EB;stroke-width:1}
</style>
<text x="86" y="34" class="title">Minor-loss K drops after adjacent straight-loss subtraction</text>
<text x="86" y="56" class="subtitle">Salt 2/3/4 preserved corner rows; test-section complex still requires raw two-tap extraction</text>
<line x1="86" y1="535.0" x2="1144" y2="535.0" class="grid"/>
<text x="76" y="539.0" text-anchor="end" class="tick">0</text>
<line x1="86" y1="386.0" x2="1144" y2="386.0" class="grid"/>
<text x="76" y="390.0" text-anchor="end" class="tick">5</text>
<line x1="86" y1="237.0" x2="1144" y2="237.0" class="grid"/>
<text x="76" y="241.0" text-anchor="end" class="tick">10</text>
<line x1="86" y1="88.0" x2="1144" y2="88.0" class="grid"/>
<text x="76" y="92.0" text-anchor="end" class="tick">15</text>
<line x1="86" y1="535.0" x2="1144" y2="535.0" class="axis"/>
<text x="24" y="311.5" class="label" transform="rotate(-90 24 311.5)">Mean K</text>
<rect x="170.2" y="288.6" width="39.4" height="246.4" fill="#D97706"/>
<text x="189.9" y="283.6" text-anchor="middle" class="small">8.27</text>
<rect x="218.2" y="432.1" width="39.4" height="102.9" fill="#2563EB"/>
<text x="237.9" y="427.1" text-anchor="middle" class="small">3.45</text>
<text x="218.2" y="563" text-anchor="middle" class="tick">lower left</text>
<rect x="434.8" y="127.3" width="39.4" height="407.7" fill="#D97706"/>
<text x="454.4" y="122.3" text-anchor="middle" class="small">13.7</text>
<rect x="482.8" y="323.5" width="39.4" height="211.5" fill="#2563EB"/>
<text x="502.4" y="318.5" text-anchor="middle" class="small">7.1</text>
<text x="482.8" y="563" text-anchor="middle" class="tick">lower right</text>
<rect x="699.2" y="344.8" width="39.4" height="190.2" fill="#D97706"/>
<text x="718.9" y="339.8" text-anchor="middle" class="small">6.38</text>
<rect x="747.2" y="468.4" width="39.4" height="66.6" fill="#2563EB"/>
<text x="766.9" y="463.4" text-anchor="middle" class="small">2.24</text>
<text x="747.2" y="563" text-anchor="middle" class="tick">upper left</text>
<rect x="963.8" y="99.6" width="39.4" height="435.4" fill="#D97706"/>
<text x="983.4" y="94.6" text-anchor="middle" class="small">14.6</text>
<rect x="1011.8" y="327.2" width="39.4" height="207.8" fill="#2563EB"/>
<text x="1031.4" y="322.2" text-anchor="middle" class="small">6.97</text>
<text x="1011.8" y="563" text-anchor="middle" class="tick">upper right</text>
<rect x="86" y="598" width="12" height="12" fill="#D97706"/>
<text x="104" y="608" class="legend">K apparent</text>
<rect x="296" y="598" width="12" height="12" fill="#2563EB"/>
<text x="314" y="608" class="legend">K local</text>
<text x="86" y="642" class="small">K_local remains an upper-bound estimate because preserved rows use an abs(dz) tap-length proxy, not full centerline tap-to-tap length.</text>
</svg>
