<svg xmlns="http://www.w3.org/2000/svg" width="1180" height="680" viewBox="0 0 1180 680">
<rect x="0" y="0" width="1180" height="680" fill="#FFFFFF"/>
<style>
text{font-family:Arial,Helvetica,sans-serif;fill:#111827}
.title{font-size:22px;font-weight:700}
.subtitle{font-size:12px;fill:#4B5563}
.tick{font-size:11px;fill:#4B5563}
.small{font-size:10px;fill:#4B5563}
.label{font-size:12px;fill:#111827}
.legend{font-size:11px;fill:#111827}
.axis{stroke:#374151;stroke-width:1}
.grid{stroke:#E5E7EB;stroke-width:1}
</style>
<text x="88" y="34" class="title">T13 proposal targets the missing Re range for onset and F6/F5 separation</text>
<text x="88" y="56" class="subtitle">Q sweep from Salt 3 anchor; proposed rows are not yet CFD evidence</text>
<line x1="88" y1="550.0" x2="1136" y2="550.0" class="grid"/>
<text x="78" y="554.0" text-anchor="end" class="tick">0</text>
<line x1="88" y1="396.0" x2="1136" y2="396.0" class="grid"/>
<text x="78" y="400.0" text-anchor="end" class="tick">200</text>
<line x1="88" y1="242.0" x2="1136" y2="242.0" class="grid"/>
<text x="78" y="246.0" text-anchor="end" class="tick">400</text>
<line x1="88" y1="88.0" x2="1136" y2="88.0" class="grid"/>
<text x="78" y="92.0" text-anchor="end" class="tick">600</text>
<line x1="88" y1="550" x2="1136" y2="550" class="axis"/>
<line x1="88" y1="88" x2="88" y2="550" class="axis"/>
<text x="612.0" y="620" text-anchor="middle" class="label">Heater Q (W)</text>
<text x="24" y="319.0" class="label" transform="rotate(-90 24 319.0)">Estimated Re</text>
<path d="M88.0,480.7 L121.8,467.6 L189.4,426.0 L324.6,379.8 L595.1,315.1 L1136.0,220.4" fill="none" stroke="#2563EB" stroke-width="3"/>
<line x1="88" y1="396.0" x2="1136" y2="396.0" stroke="#D97706" stroke-width="1.5" stroke-dasharray="6 4"/>
<text x="1130" y="391.0" text-anchor="end" class="small">Re 200</text>
<line x1="88" y1="319.0" x2="1136" y2="319.0" stroke="#DC2626" stroke-width="1.5" stroke-dasharray="6 4"/>
<text x="1130" y="314.0" text-anchor="end" class="small">Re 300</text>
<circle cx="88.0" cy="480.7" r="5" fill="#111827"/>
<text x="88.0" y="470.7" text-anchor="middle" class="small">S3 anchor</text>
<text x="88.0" y="573" text-anchor="middle" class="tick">298</text>
<text x="88.0" y="499.7" text-anchor="middle" class="small">90</text>
<circle cx="121.8" cy="467.6" r="5" fill="#2563EB"/>
<text x="121.8" y="457.6" text-anchor="middle" class="small">T13-A1</text>
<text x="121.8" y="573" text-anchor="middle" class="tick">595</text>
<text x="121.8" y="486.6" text-anchor="middle" class="small">107</text>
<circle cx="189.4" cy="426.0" r="5" fill="#2563EB"/>
<text x="189.4" y="416.0" text-anchor="middle" class="small">T13-A2</text>
<text x="189.4" y="573" text-anchor="middle" class="tick">1190</text>
<text x="189.4" y="445.0" text-anchor="middle" class="small">161</text>
<circle cx="324.6" cy="379.8" r="5" fill="#2563EB"/>
<text x="324.6" y="369.8" text-anchor="middle" class="small">T13-A3</text>
<text x="324.6" y="573" text-anchor="middle" class="tick">2380</text>
<text x="324.6" y="398.8" text-anchor="middle" class="small">221</text>
<circle cx="595.1" cy="315.1" r="5" fill="#2563EB"/>
<text x="595.1" y="305.1" text-anchor="middle" class="small">T13-A4</text>
<text x="595.1" y="573" text-anchor="middle" class="tick">4760</text>
<text x="595.1" y="334.1" text-anchor="middle" class="small">305</text>
<circle cx="1136.0" cy="220.4" r="5" fill="#2563EB"/>
<text x="1136.0" y="210.4" text-anchor="middle" class="small">T13-A5</text>
<text x="1136.0" y="573" text-anchor="middle" class="tick">9520</text>
<text x="1136.0" y="239.4" text-anchor="middle" class="small">428</text>
<text x="88" y="648" class="small">Use as a planning figure only: T13 depends on corrected-Salt gate/admission and does not replace mesh or time-window uncertainty.</text>
</svg>
